<svg width="326" viewBox="0 0 326 377" style="fill-opacity: 1; color-interpolation: auto; text-rendering: auto; stroke: black; stroke-linecap: square; stroke-miterlimit: 10; shape-rendering: auto; stroke-opacity: 1; fill: black; stroke-dasharray: none; font-weight: normal; stroke-width: 1px; font-family: &quot;Open Sans&quot;; font-style: normal; stroke-linejoin: miter; stroke-dashoffset: 0px; image-rendering: auto; width: 100%; height: auto;" height="377" class="cas-substance-image" xmlns:xlink="http://www.w3.org/1999/xlink" xmlns="http://www.w3.org/2000/svg"><svg class="cas-substance-single-component"><rect y="0" x="0" width="326" stroke="none" ry="7" rx="7" height="377" fill="white" class="cas-substance-group"></rect><svg y="0" x="0" width="326" viewBox="0 0 326 377" style="fill:black;" height="377" class="cas-substance-single-component-image"><svg><g><clipPath id="clipPath_a28a20cd413d4d8b98c9df84624f509f1" clipPathUnits="userSpaceOnUse"><path d="M-1121.4696 -891.9647 L-1177.7509 -887.033 L-1177.7509 -846.8798 L-1177.7509 -846.8798 L-1117.9779 -852.1174 L-1121.4696 -891.9647 ZM-1183.7509 -886.5073 L-1206.5685 -884.5079 L-1203.0768 -844.6606 L-1183.7509 -846.354 L-1183.7509 -846.354 L-1183.7509 -886.5073 Z"></path></clipPath><clipPath id="clipPath_a28a20cd413d4d8b98c9df84624f509f2" clipPathUnits="userSpaceOnUse"><path d="M-1105.0405 -880.3627 L-1143.7605 -870.3247 L-1126.0237 -801.9072 L-1126.0237 -801.9072 L-1096.9094 -818.9036 L-1093.8845 -813.7219 L-1124.4594 -795.8729 L-1124.4594 -795.8729 L-1097.63 -692.3824 L-1058.91 -702.4204 L-1105.0405 -880.3627 Z"></path></clipPath><g transform="translate(1277,1009)" style="text-rendering:geometricPrecision; color-rendering:optimizeQuality; color-interpolation:linearRGB; stroke-linecap:butt; image-rendering:optimizeQuality;"><line y2="-874.6733" y1="-867.6765" x2="-1218.0216" x1="-1205.8834" style="fill:none;"></line><line y2="-871.6411" y1="-864.6442" x2="-1219.7695" x1="-1207.6313" style="fill:none;"></line><line y2="-877.7056" y1="-870.7087" x2="-1216.2737" x1="-1204.1355" style="fill:none;"></line><line y2="-870.9514" y1="-865.3361" x2="-1132.1588" x1="-1196.2428" style="fill:none; clip-path:url(#clipPath_a28a20cd413d4d8b98c9df84624f509f1);"></line><path style="stroke:none;" d="M-1183.5626 -917.2224 L-1183.4508 -916.2224 L-1178.0509 -916.2224 L-1177.9391 -917.2224 ZM-1183.2273 -914.2224 L-1183.1155 -913.2224 L-1178.3862 -913.2224 L-1178.2744 -914.2224 ZM-1182.892 -911.2224 L-1182.7803 -910.2224 L-1178.7214 -910.2224 L-1178.6097 -911.2224 ZM-1182.5568 -908.2224 L-1182.4449 -907.2224 L-1179.0568 -907.2224 L-1178.9449 -908.2224 ZM-1182.2214 -905.2224 L-1182.1097 -904.2224 L-1179.392 -904.2224 L-1179.2803 -905.2224 ZM-1181.8862 -902.2224 L-1181.7744 -901.2224 L-1179.7273 -901.2224 L-1179.6155 -902.2224 ZM-1181.5509 -899.2224 L-1181.4391 -898.2224 L-1180.0626 -898.2224 L-1179.9508 -899.2224 Z"></path><line y2="-919.2578" y1="-931.9503" x2="-1234.5361" x1="-1212.5172" style="fill:none;"></line><line y2="-919.2578" y1="-931.9503" x2="-1190.4982" x1="-1212.5172" style="fill:none;"></line><line y2="-930.4089" y1="-919.2578" x2="-1253.787" x1="-1234.5361" style="fill:none;"></line><line y2="-900.2793" y1="-920.2715" x2="-1236.2861" x1="-1236.2861" style="fill:none;"></line><line y2="-900.2793" y1="-920.2666" x2="-1232.7861" x1="-1232.7861" style="fill:none;"></line><path style="stroke:none;" d="M-1192.2151 -918.6073 L-1193.0229 -918.0101 L-1191.9951 -916.8726 L-1191.3191 -917.6157 L-1192.2151 -918.6073 ZM-1194.6388 -916.8154 L-1195.4467 -916.2181 L-1194.0233 -914.6429 L-1194.0233 -914.6429 L-1193.3473 -915.386 L-1193.3473 -915.386 L-1194.6388 -916.8154 ZM-1197.0625 -915.0236 L-1197.8704 -914.4263 L-1196.0515 -912.4131 L-1196.0515 -912.4131 L-1195.3755 -913.1564 L-1197.0625 -915.0236 ZM-1199.4862 -913.2316 L-1200.2942 -912.6343 L-1198.0797 -910.1835 L-1198.0797 -910.1835 L-1197.4037 -910.9267 L-1197.4037 -910.9267 L-1199.4862 -913.2316 ZM-1201.9099 -911.4397 L-1202.7179 -910.8424 L-1200.1079 -907.9538 L-1200.1079 -907.9538 L-1199.4318 -908.697 L-1201.9099 -911.4397 ZM-1204.3337 -909.6478 L-1205.1416 -909.0505 L-1205.1416 -909.0505 L-1202.136 -905.7241 L-1201.46 -906.4673 L-1204.3337 -909.6478 ZM-1206.7573 -907.856 L-1207.5653 -907.2586 L-1204.1642 -903.4944 L-1203.4882 -904.2377 L-1203.4882 -904.2377 L-1206.7573 -907.856 ZM-1209.181 -906.0641 L-1209.989 -905.4667 L-1209.989 -905.4667 L-1206.1924 -901.2647 L-1206.1924 -901.2647 L-1205.5162 -902.008 L-1209.181 -906.0641 Z"></path><line y2="-981.8085" y1="-969.1161" x2="-1195.1263" x1="-1173.1073" style="fill:none;"></line><path style="stroke:none;" d="M-1175.8503 -967.3774 L-1175.7773 -966.3773 L-1175.7773 -966.3773 L-1170.1991 -966.3688 L-1170.1991 -966.3688 L-1170.1128 -967.3687 L-1170.1128 -967.3687 L-1175.8503 -967.3774 ZM-1175.6312 -964.3771 L-1175.5581 -963.377 L-1175.5581 -963.377 L-1170.4578 -963.3691 L-1170.4578 -963.3691 L-1170.3715 -964.369 L-1170.3715 -964.369 L-1175.6312 -964.3771 ZM-1175.412 -961.3767 L-1175.339 -960.3766 L-1175.339 -960.3766 L-1170.7164 -960.3696 L-1170.7164 -960.3696 L-1170.6302 -961.3694 L-1170.6302 -961.3694 L-1175.412 -961.3767 ZM-1175.1929 -958.3764 L-1175.1198 -957.3763 L-1175.1198 -957.3763 L-1170.9751 -957.3699 L-1170.9751 -957.3699 L-1170.8889 -958.3698 L-1170.8889 -958.3698 L-1175.1929 -958.3764 ZM-1174.9736 -955.376 L-1174.9006 -954.3759 L-1174.9006 -954.3759 L-1171.2338 -954.3703 L-1171.2338 -954.3703 L-1171.1476 -955.3702 L-1171.1476 -955.3702 L-1174.9736 -955.376 ZM-1174.7545 -952.3757 L-1174.6815 -951.3755 L-1174.6815 -951.3755 L-1171.4924 -951.3707 L-1171.4924 -951.3707 L-1171.4062 -952.3706 L-1171.4062 -952.3706 L-1174.7545 -952.3757 ZM-1174.5354 -949.3754 L-1174.4623 -948.3752 L-1174.4623 -948.3752 L-1171.7511 -948.3711 L-1171.7511 -948.3711 L-1171.6649 -949.371 L-1171.6649 -949.371 L-1174.5354 -949.3754 ZM-1174.3162 -946.375 L-1174.2432 -945.3749 L-1174.2432 -945.3749 L-1172.0098 -945.3715 L-1172.0098 -945.3715 L-1171.9236 -946.3713 L-1171.9236 -946.3713 L-1174.3162 -946.375 ZM-1174.097 -943.3746 L-1174.0239 -942.3745 L-1174.0239 -942.3745 L-1172.2686 -942.3719 L-1172.2686 -942.3719 L-1172.1823 -943.3717 L-1172.1823 -943.3717 L-1174.097 -943.3746 ZM-1173.8778 -940.3743 L-1173.8048 -939.3742 L-1173.8048 -939.3742 L-1172.5272 -939.3723 L-1172.5272 -939.3723 L-1172.4409 -940.3721 L-1172.4409 -940.3721 L-1173.8778 -940.3743 Z"></path><line y2="-969.1161" y1="-981.8085" x2="-1217.2155" x1="-1195.1263" style="fill:none;"></line><line y2="-980.275" y1="-969.1161" x2="-1236.5353" x1="-1217.2155" style="fill:none;"></line><line y2="-950.1376" y1="-970.1269" x2="-1218.9655" x1="-1218.9655" style="fill:none;"></line><line y2="-950.1376" y1="-970.1216" x2="-1215.4655" x1="-1215.4655" style="fill:none;"></line><line y2="-941.9079" y1="-967.363" x2="-1124.5814" x1="-1124.5814" style="fill:none;"></line><line y2="-821.9956" y1="-809.303" x2="-1235.588" x1="-1213.569" style="fill:none;"></line><path style="stroke:none;" d="M-1191.7998 -822.4288 L-1191.3003 -821.5624 L-1210.8152 -807.1385 L-1216.8223 -810.6013 Z"></path><line y2="-812.2338" y1="-821.9956" x2="-1252.5227" x1="-1235.588" style="fill:none;"></line><line y2="-841.0991" y1="-820.9868" x2="-1233.838" x1="-1233.838" style="fill:none;"></line><line y2="-841.0991" y1="-820.9868" x2="-1237.338" x1="-1237.338" style="fill:none;"></line><path style="stroke:none;" d="M-1173.39 -805.1976 L-1172.965 -804.2925 L-1194.9032 -791.2303 L-1197.4532 -796.6615 Z"></path><line y2="-799.2754" y1="-773.8904" x2="-1124.5814" x1="-1124.5814" style="fill:none;"></line><line y2="-975.7779" y1="-963.0153" x2="-1053.8962" x1="-1075.9152" style="fill:none;"></line><line y2="-937.6303" y1="-963.0153" x2="-1075.9152" x1="-1075.9152" style="fill:none;"></line><line y2="-965.9608" y1="-975.7779" x2="-1036.9592" x1="-1053.8962" style="fill:none;"></line><line y2="-994.8113" y1="-974.7635" x2="-1052.1462" x1="-1052.1462" style="fill:none;"></line><line y2="-994.8113" y1="-974.7635" x2="-1055.6462" x1="-1055.6462" style="fill:none;"></line><path style="stroke:none;" d="M-1054.9825 -949.0941 L-1055.8739 -948.6298 L-1055.8739 -948.6298 L-1053.8353 -943.5547 L-1053.8353 -943.5547 L-1052.8707 -943.8362 L-1054.9825 -949.0941 ZM-1057.6562 -947.7014 L-1058.5476 -947.2372 L-1056.7292 -942.7103 L-1056.7292 -942.7103 L-1055.7646 -942.9918 L-1055.7646 -942.9918 L-1057.6562 -947.7014 ZM-1060.3301 -946.3088 L-1061.2212 -945.8447 L-1059.623 -941.8659 L-1059.623 -941.8659 L-1058.6586 -942.1474 L-1060.3301 -946.3088 ZM-1063.0038 -944.9162 L-1063.8949 -944.4521 L-1063.8949 -944.4521 L-1062.517 -941.0215 L-1062.517 -941.0215 L-1061.5524 -941.303 L-1061.5524 -941.303 L-1063.0038 -944.9162 ZM-1065.6775 -943.5236 L-1066.5686 -943.0594 L-1065.4109 -940.1771 L-1064.4463 -940.4586 L-1064.4463 -940.4586 L-1065.6775 -943.5236 ZM-1068.3512 -942.131 L-1069.2423 -941.6669 L-1069.2423 -941.6669 L-1068.3048 -939.3326 L-1068.3048 -939.3326 L-1067.3402 -939.6141 L-1068.3512 -942.131 ZM-1071.0249 -940.7384 L-1071.916 -940.2742 L-1071.916 -940.2742 L-1071.1987 -938.4882 L-1070.2341 -938.7697 L-1071.0249 -940.7384 ZM-1073.6986 -939.3458 L-1074.5898 -938.8817 L-1074.5898 -938.8817 L-1074.0927 -937.6438 L-1074.0927 -937.6438 L-1073.1281 -937.9252 L-1073.6986 -939.3458 Z"></path><line y2="-919.2578" y1="-931.9503" x2="-1014.6267" x1="-1036.6456" style="fill:none;"></line><path style="stroke:none;" d="M-1039.5417 -933.5494 L-1040.3589 -932.9648 L-1040.3589 -932.9648 L-1037.6279 -928.2289 L-1036.7124 -928.6431 L-1039.5417 -933.5494 ZM-1041.9932 -931.7957 L-1042.8103 -931.2111 L-1040.3741 -926.9865 L-1040.3741 -926.9865 L-1039.4587 -927.4007 L-1039.4587 -927.4007 L-1041.9932 -931.7957 ZM-1044.4446 -930.042 L-1045.2617 -929.4575 L-1045.2617 -929.4575 L-1043.1204 -925.7441 L-1043.1204 -925.7441 L-1042.205 -926.1582 L-1044.4446 -930.042 ZM-1046.8961 -928.2883 L-1047.7133 -927.7038 L-1045.8666 -924.5016 L-1045.8666 -924.5016 L-1044.9513 -924.9158 L-1044.9513 -924.9158 L-1046.8961 -928.2883 ZM-1049.3474 -926.5347 L-1050.1647 -925.9501 L-1048.6129 -923.2592 L-1047.6974 -923.6733 L-1047.6974 -923.6733 L-1049.3474 -926.5347 ZM-1051.799 -924.781 L-1052.6161 -924.1965 L-1051.3591 -922.0167 L-1050.4437 -922.4309 L-1050.4437 -922.4309 L-1051.799 -924.781 ZM-1054.2504 -923.0273 L-1055.0675 -922.4428 L-1055.0675 -922.4428 L-1054.1053 -920.7743 L-1053.1899 -921.1884 L-1054.2504 -923.0273 ZM-1056.7018 -921.2737 L-1057.519 -920.6891 L-1056.8517 -919.5319 L-1056.8517 -919.5319 L-1055.9362 -919.946 L-1055.9362 -919.946 L-1056.7018 -921.2737 Z"></path><line y2="-931.9503" y1="-919.2578" x2="-992.6077" x1="-1014.6267" style="fill:none;"></line><line y2="-922.1885" y1="-931.9503" x2="-975.673" x1="-992.6077" style="fill:none;"></line><line y2="-951.0539" y1="-930.9415" x2="-990.8577" x1="-990.8577" style="fill:none;"></line><line y2="-951.0539" y1="-930.9415" x2="-994.3577" x1="-994.3577" style="fill:none;"></line><line y2="-766.5974" y1="-779.29" x2="-1052.8444" x1="-1074.8633" style="fill:none;"></line><path style="stroke:none;" d="M-1075.5453 -803.0175 L-1075.6506 -802.0175 L-1074.1124 -802.0175 L-1074.2045 -803.0175 ZM-1075.8615 -800.0175 L-1075.9668 -799.0175 L-1073.8365 -799.0175 L-1073.9285 -800.0175 ZM-1076.1775 -797.0175 L-1076.283 -796.0175 L-1073.5607 -796.0175 L-1073.6526 -797.0175 ZM-1076.4937 -794.0175 L-1076.599 -793.0175 L-1073.2848 -793.0175 L-1073.3767 -794.0175 ZM-1076.8098 -791.0175 L-1076.9152 -790.0175 L-1073.0089 -790.0175 L-1073.1008 -791.0175 ZM-1077.1259 -788.0175 L-1077.2312 -787.0175 L-1072.733 -787.0175 L-1072.825 -788.0175 ZM-1077.442 -785.0175 L-1077.5474 -784.0175 L-1072.457 -784.0175 L-1072.5491 -785.0175 ZM-1077.7581 -782.0175 L-1077.8633 -781.0193 L-1077.8602 -781.0175 L-1072.1812 -781.0175 L-1072.2732 -782.0175 Z"></path><line y2="-779.29" y1="-766.5974" x2="-1030.8254" x1="-1052.8444" style="fill:none;"></line><line y2="-769.5282" y1="-779.29" x2="-1013.8906" x1="-1030.8254" style="fill:none;"></line><line y2="-798.3935" y1="-778.2812" x2="-1029.0754" x1="-1029.0754" style="fill:none;"></line><line y2="-798.3935" y1="-778.2812" x2="-1032.5754" x1="-1032.5754" style="fill:none;"></line><line y2="-821.9956" y1="-801.9401" x2="-1058.6646" x1="-1042.9569" style="fill:none;"></line><line y2="-821.9956" y1="-834.688" x2="-1058.6646" x1="-1036.6456" style="fill:none;"></line><line y2="-685.8846" y1="-698.5771" x2="-1001.3732" x1="-979.3542" style="fill:none;"></line><line y2="-655.5909" y1="-642.8985" x2="-1001.3732" x1="-979.3542" style="fill:none;"></line><line y2="-684.8327" y1="-669.6587" x2="-1142.8838" x1="-1154.2905" style="fill:none;"></line><line y2="-775.3102" y1="-794.5556" x2="-1226.8328" x1="-1223.1027" style="fill:none;"></line><line y2="-774.6385" y1="-793.8896" x2="-1223.3978" x1="-1219.6666" style="fill:none;"></line><line y2="-653.5258" y1="-643.9503" x2="-1221.464" x1="-1204.9437" style="fill:none;"></line><path style="stroke:none;" d="M-1184.7474 -656.4178 L-1185.6583 -655.9962 L-1185.6583 -655.9962 L-1184.8862 -654.6666 L-1184.8862 -654.6666 L-1184.0743 -655.2589 L-1184.0743 -655.2589 L-1184.7474 -656.4178 ZM-1187.4802 -655.1528 L-1188.3911 -654.7311 L-1188.3911 -654.7311 L-1187.3218 -652.8898 L-1187.3218 -652.8898 L-1186.51 -653.4821 L-1186.51 -653.4821 L-1187.4802 -655.1528 ZM-1190.213 -653.8878 L-1191.124 -653.4661 L-1189.7574 -651.113 L-1188.9456 -651.7053 L-1190.213 -653.8878 ZM-1192.9459 -652.6227 L-1193.8568 -652.201 L-1192.1931 -649.3362 L-1191.3812 -649.9285 L-1191.3812 -649.9285 L-1192.9459 -652.6227 ZM-1195.6787 -651.3577 L-1196.5896 -650.936 L-1194.6287 -647.5594 L-1193.8168 -648.1516 L-1195.6787 -651.3577 ZM-1198.4115 -650.0926 L-1199.3224 -649.6709 L-1197.0643 -645.7826 L-1196.2524 -646.3748 L-1196.2524 -646.3748 L-1198.4115 -650.0926 ZM-1201.1443 -648.8276 L-1202.0553 -648.4059 L-1199.4999 -644.0057 L-1198.688 -644.598 L-1198.688 -644.598 L-1201.1443 -648.8276 ZM-1203.8771 -647.5625 L-1204.7881 -647.1408 L-1201.9355 -642.2289 L-1201.1237 -642.8212 L-1203.8771 -647.5625 Z"></path><line y2="-727.26" y1="-713.2449" x2="-1196.121" x1="-1191.0245" style="fill:none;"></line><line y2="-726.064" y1="-712.0488" x2="-1199.4103" x1="-1194.3138" style="fill:none;"></line><line y2="-724.5327" y1="-712.6469" x2="-1201.1154" x1="-1205.4375" style="fill:none;"></line><path style="stroke:none;" d="M-1256.801 -718.3558 L-1257.4402 -717.5799 L-1257.4402 -717.5799 L-1256.1667 -716.7261 L-1256.1667 -716.7261 L-1255.691 -717.6116 L-1256.801 -718.3558 ZM-1258.7185 -716.0283 L-1259.3577 -715.2524 L-1257.5939 -714.0699 L-1257.5939 -714.0699 L-1257.1182 -714.9554 L-1258.7185 -716.0283 ZM-1260.636 -713.7007 L-1261.275 -712.9249 L-1261.275 -712.9249 L-1259.021 -711.4138 L-1259.021 -711.4138 L-1258.5453 -712.2991 L-1260.636 -713.7007 ZM-1262.5533 -711.3733 L-1263.1925 -710.5975 L-1263.1925 -710.5975 L-1260.4481 -708.7576 L-1259.9724 -709.643 L-1262.5533 -711.3733 ZM-1264.4708 -709.0458 L-1265.1099 -708.27 L-1261.8752 -706.1014 L-1261.8752 -706.1014 L-1261.3995 -706.9868 L-1264.4708 -709.0458 ZM-1266.3882 -706.7183 L-1267.0273 -705.9424 L-1267.0273 -705.9424 L-1263.3024 -703.4452 L-1262.8267 -704.3306 L-1262.8267 -704.3306 L-1266.3882 -706.7183 ZM-1268.3057 -704.3908 L-1268.9448 -703.615 L-1268.9448 -703.615 L-1264.7295 -700.789 L-1264.7295 -700.789 L-1264.2538 -701.6744 L-1268.3057 -704.3908 ZM-1270.223 -702.0633 L-1270.8622 -701.2875 L-1270.8622 -701.2875 L-1266.1566 -698.1328 L-1265.6809 -699.0182 L-1270.223 -702.0633 Z"></path><line y2="-892.1022" y1="-877.178" x2="-1145.6333" x1="-1129.4022" style="fill:none;"></line><line y2="-849.4816" y1="-865.9557" x2="-1145.6914" x1="-1129.2174" style="fill:none;"></line><line y2="-891.7719" y1="-876.158" x2="-1103.4012" x1="-1119.0151" style="fill:none;"></line><line y2="-849.8331" y1="-865.8976" x2="-1103.3408" x1="-1118.1118" style="fill:none;"></line><line y2="-707.3737" y1="-865.434" x2="-1080.8552" x1="-1121.8315" style="fill:none; clip-path:url(#clipPath_a28a20cd413d4d8b98c9df84624f509f2);"></line><line y2="-896.5376" y1="-896.5376" x2="-1180.7509" x1="-1155.8087" style="fill:none;"></line><line y2="-926.8312" y1="-902.9438" x2="-1150.4572" x1="-1150.4572" style="fill:none;"></line><line y2="-924.8105" y1="-900.8652" x2="-1153.9572" x1="-1153.9572" style="fill:none;"></line><line y2="-844.7158" y1="-844.7158" x2="-1180.7509" x1="-1155.8087" style="fill:none;"></line><line y2="-814.4222" y1="-838.5596" x2="-1150.4572" x1="-1150.4572" style="fill:none;"></line><line y2="-926.8312" y1="-902.9438" x2="-1098.6355" x1="-1098.6355" style="fill:none;"></line><line y2="-896.5376" y1="-896.5376" x2="-1068.412" x1="-1093.2839" style="fill:none;"></line><line y2="-900.0376" y1="-900.0376" x2="-1070.4327" x1="-1094.3179" style="fill:none;"></line><line y2="-814.4222" y1="-838.5596" x2="-1098.6355" x1="-1098.6355" style="fill:none;"></line><line y2="-816.4429" y1="-840.3882" x2="-1095.1355" x1="-1095.1355" style="fill:none;"></line><line y2="-844.7158" y1="-844.7158" x2="-1068.412" x1="-1093.2839" style="fill:none;"></line><line y2="-685.8846" y1="-698.0665" x2="-1053.265" x1="-1074.1323" style="fill:none;"></line><line y2="-685.8846" y1="-698.0592" x2="-1105.0869" x1="-1084.2887" style="fill:none;"></line><line y2="-683.8848" y1="-695.0386" x2="-1101.5748" x1="-1082.5205" style="fill:none;"></line><line y2="-844.7158" y1="-896.5376" x2="-1180.7509" x1="-1180.7509" style="fill:none;"></line><line y2="-919.2578" y1="-896.5376" x2="-1190.4982" x1="-1180.7509" style="fill:none;"></line><line y2="-937.6303" y1="-926.8312" x2="-1173.1775" x1="-1150.4572" style="fill:none;"></line><line y2="-941.9079" y1="-926.8312" x2="-1124.5814" x1="-1150.4572" style="fill:none;"></line><line y2="-821.9956" y1="-844.7158" x2="-1191.55" x1="-1180.7509" style="fill:none;"></line><line y2="-804.7451" y1="-814.4222" x2="-1173.1775" x1="-1150.4572" style="fill:none;"></line><line y2="-799.2754" y1="-814.4222" x2="-1124.5814" x1="-1150.4572" style="fill:none;"></line><line y2="-803.3168" y1="-816.4219" x2="-1124.5571" x1="-1146.9451" style="fill:none;"></line><line y2="-941.9079" y1="-926.8312" x2="-1124.5814" x1="-1098.6355" style="fill:none;"></line><line y2="-937.8665" y1="-924.8203" x2="-1124.5927" x1="-1102.1411" style="fill:none;"></line><line y2="-937.6303" y1="-926.8312" x2="-1075.9152" x1="-1098.6355" style="fill:none;"></line><line y2="-919.2578" y1="-896.5376" x2="-1058.6646" x1="-1068.412" style="fill:none;"></line><line y2="-870.5916" y1="-896.5376" x2="-1053.265" x1="-1068.412" style="fill:none;"></line><line y2="-799.2754" y1="-814.4222" x2="-1124.5814" x1="-1098.6355" style="fill:none;"></line><line y2="-804.7451" y1="-814.4222" x2="-1074.8633" x1="-1098.6355" style="fill:none;"></line><line y2="-870.5916" y1="-844.7158" x2="-1053.265" x1="-1068.412" style="fill:none;"></line><line y2="-870.6158" y1="-848.2278" x2="-1057.3064" x1="-1070.4116" style="fill:none;"></line><line y2="-821.9956" y1="-844.7158" x2="-1058.6646" x1="-1068.412" style="fill:none;"></line><line y2="-655.5909" y1="-685.8846" x2="-1053.265" x1="-1053.265" style="fill:none;"></line><line y2="-701.0314" y1="-685.8846" x2="-1027.3192" x1="-1053.265" style="fill:none;"></line><line y2="-696.99" y1="-683.8807" x2="-1027.2998" x1="-1049.7554" style="fill:none;"></line><line y2="-661.9971" y1="-685.8846" x2="-1105.0869" x1="-1105.0869" style="fill:none;"></line><line y2="-937.6303" y1="-919.2578" x2="-1173.1775" x1="-1190.4982" style="fill:none;"></line><line y2="-804.7451" y1="-821.9956" x2="-1173.1775" x1="-1191.55" style="fill:none;"></line><line y2="-775.5734" y1="-804.7451" x2="-1173.1775" x1="-1173.1775" style="fill:none;"></line><line y2="-919.2578" y1="-937.6303" x2="-1058.6646" x1="-1075.9152" style="fill:none;"></line><line y2="-821.9956" y1="-804.7451" x2="-1058.6646" x1="-1074.8633" style="fill:none;"></line><line y2="-655.5909" y1="-655.5909" x2="-1099.7354" x1="-1053.265" style="fill:none;"></line><line y2="-640.5142" y1="-655.5909" x2="-1027.3192" x1="-1053.265" style="fill:none;"></line><line y2="-644.5557" y1="-657.6018" x2="-1027.308" x1="-1049.7594" style="fill:none;"></line><line y2="-685.8846" y1="-701.0314" x2="-1001.3732" x1="-1027.3192" style="fill:none;"></line><line y2="-655.5909" y1="-655.5909" x2="-1134.2585" x1="-1110.4385" style="fill:none;"></line><line y2="-760.4266" y1="-775.5734" x2="-1199.0533" x1="-1173.1775" style="fill:none;"></line><line y2="-655.5909" y1="-640.5142" x2="-1001.3732" x1="-1027.3192" style="fill:none;"></line><line y2="-655.5909" y1="-685.8846" x2="-1001.3732" x1="-1001.3732" style="fill:none;"></line><line y2="-657.6116" y1="-683.8638" x2="-1004.8732" x1="-1004.8732" style="fill:none;"></line><path style="stroke:none;" d="M-1133.7789 -655.7324 L-1134.7382 -655.4494 L-1145.1301 -681.8444 L-1142.8838 -684.8327 L-1140.6353 -687.8136 Z"></path><line y2="-642.949" y1="-655.5909" x2="-1153.771" x1="-1134.2585" style="fill:none;"></line><line y2="-775.5734" y1="-760.4266" x2="-1224.9991" x1="-1199.0533" style="fill:none;"></line><path style="stroke:none;" d="M-1173.1775 -684.3327 L-1173.1775 -685.3327 L-1140.6208 -687.8327 L-1142.8838 -684.8327 L-1145.1389 -681.8327 Z"></path><line y2="-656.713" y1="-643.2269" x2="-1182.9248" x1="-1164.3405" style="fill:none;"></line><line y2="-771.9908" y1="-775.5734" x2="-1249.9615" x1="-1224.9991" style="fill:none;"></line><line y2="-656.713" y1="-684.8327" x2="-1182.9248" x1="-1173.1775" style="fill:none;"></line><line y2="-708.7047" y1="-684.8327" x2="-1173.1775" x1="-1173.1775" style="fill:none;"></line><line y2="-745.2798" y1="-765.3401" x2="-1270.3695" x1="-1258.7128" style="fill:none;"></line><line y2="-728.3777" y1="-718.3284" x2="-1195.9349" x1="-1178.7673" style="fill:none;"></line><line y2="-719.4039" y1="-745.2798" x2="-1255.2928" x1="-1270.3695" style="fill:none;"></line><line y2="-718.3069" y1="-727.6076" x2="-1219.4309" x1="-1203.4993" style="fill:none;"></line><line y2="-715.9055" y1="-719.4039" x2="-1230.9164" x1="-1255.2928" style="fill:none;"></line><path style="stroke:none;" d="M-1181.1598 -844.4281 L-1180.3419 -845.0035 L-1167.8933 -831.6573 L-1172.8 -828.2043 Z"></path><line y2="-699.3456" y1="-684.8327" x2="-1131.9364" x1="-1142.8838" style="fill:none;"></line><path style="stroke-linecap:square; stroke:none;" d="M-1200.2197 -868.4897 Q-1201.626 -868.4897 -1202.4463 -867.5522 Q-1203.2666 -866.6147 -1203.2666 -864.9741 Q-1203.2666 -863.3022 -1202.4775 -862.3803 Q-1201.6885 -861.4584 -1200.2354 -861.4584 Q-1199.3291 -861.4584 -1198.1885 -861.7866 L-1198.1885 -860.9116 Q-1199.0791 -860.5678 -1200.376 -860.5678 Q-1202.2666 -860.5678 -1203.2979 -861.7241 Q-1204.3291 -862.8803 -1204.3291 -864.9897 Q-1204.3291 -866.3178 -1203.8369 -867.31 Q-1203.3447 -868.3022 -1202.4072 -868.8412 Q-1201.4697 -869.3803 -1200.2041 -869.3803 Q-1198.8604 -869.3803 -1197.8447 -868.8959 L-1198.2666 -868.0366 Q-1199.251 -868.4897 -1200.2197 -868.4897 Z"></path><path style="stroke-linecap:square; stroke:none;" d="M-1197.0166 -867.2584 L-1197.0166 -867.8522 L-1193.6572 -867.8522 L-1193.6572 -867.2584 L-1197.0166 -867.2584 Z"></path></g><g transform="translate(1277,1009)" style="fill:rgb(0,5,255); text-rendering:geometricPrecision; color-rendering:optimizeQuality; image-rendering:optimizeQuality; font-family:'Open Sans'; stroke:rgb(0,5,255); color-interpolation:linearRGB;"><path style="stroke:none;" d="M-1219.7543 -873.4479 L-1220.8949 -873.4479 L-1225.5824 -880.6354 L-1225.6293 -880.6354 Q-1225.5355 -879.3698 -1225.5355 -878.3229 L-1225.5355 -873.4479 L-1226.4574 -873.4479 L-1226.4574 -882.0104 L-1225.3324 -882.0104 L-1220.6605 -874.8541 L-1220.6136 -874.8541 Q-1220.6136 -875.0104 -1220.6605 -875.8698 Q-1220.7074 -876.7291 -1220.6918 -877.1041 L-1220.6918 -882.0104 L-1219.7543 -882.0104 L-1219.7543 -873.4479 Z"></path></g><g transform="translate(1277,1009)" style="stroke-linecap:butt; text-rendering:geometricPrecision; color-rendering:optimizeQuality; image-rendering:optimizeQuality; font-family:'Open Sans'; color-interpolation:linearRGB; stroke-miterlimit:5;"><path style="fill:none;" d="M-1212.9504 -931.7006 L-1212.5172 -931.9503 L-1212.084 -931.7006"></path><path style="fill:none;" d="M-1234.1029 -919.5075 L-1234.5361 -919.2578 L-1234.9688 -919.5084"></path><path style="fill:rgb(0,5,255); stroke:none;" d="M-1255.5176 -929.1965 L-1256.6582 -929.1965 L-1261.3457 -936.384 L-1261.3926 -936.384 Q-1261.2988 -935.1184 -1261.2988 -934.0715 L-1261.2988 -929.1965 L-1262.2207 -929.1965 L-1262.2207 -937.759 L-1261.0957 -937.759 L-1256.4238 -930.6028 L-1256.377 -930.6028 Q-1256.377 -930.759 -1256.4238 -931.6184 Q-1256.4707 -932.4778 -1256.4551 -932.8528 L-1256.4551 -937.759 L-1255.5176 -937.759 L-1255.5176 -929.1965 Z"></path><path style="fill:rgb(0,5,255); stroke:none;" d="M-1267.9707 -929.1965 L-1268.9707 -929.1965 L-1268.9707 -933.2278 L-1273.4863 -933.2278 L-1273.4863 -929.1965 L-1274.4863 -929.1965 L-1274.4863 -937.759 L-1273.4863 -937.759 L-1273.4863 -934.1184 L-1268.9707 -934.1184 L-1268.9707 -937.759 L-1267.9707 -937.759 L-1267.9707 -929.1965 Z"></path><path style="fill:rgb(0,5,255); stroke:none;" d="M-1263.2207 -927.3871 L-1266.9707 -927.3871 L-1266.9707 -927.9496 L-1265.4707 -929.4653 Q-1264.7832 -930.1528 -1264.5645 -930.4496 Q-1264.3457 -930.7465 -1264.2363 -931.0278 Q-1264.127 -931.309 -1264.127 -931.6371 Q-1264.127 -932.0903 -1264.4004 -932.3559 Q-1264.6738 -932.6215 -1265.1738 -932.6215 Q-1265.5176 -932.6215 -1265.8379 -932.5043 Q-1266.1582 -932.3871 -1266.5488 -932.0903 L-1266.8926 -932.5278 Q-1266.1113 -933.184 -1265.1738 -933.184 Q-1264.377 -933.184 -1263.916 -932.77 Q-1263.4551 -932.3559 -1263.4551 -931.6684 Q-1263.4551 -931.1215 -1263.7598 -930.5903 Q-1264.0645 -930.059 -1264.9082 -929.2465 L-1266.1582 -928.0278 L-1266.1582 -927.9965 L-1263.2207 -927.9965 L-1263.2207 -927.3871 Z"></path><path style="fill:rgb(230,0,0); stroke:none;" d="M-1230.5986 -893.873 Q-1230.5986 -891.8105 -1231.6377 -890.6309 Q-1232.6768 -889.4512 -1234.5205 -889.4512 Q-1236.4111 -889.4512 -1237.4424 -890.6152 Q-1238.4736 -891.7793 -1238.4736 -893.8887 Q-1238.4736 -895.9824 -1237.4424 -897.1309 Q-1236.4111 -898.2793 -1234.5205 -898.2793 Q-1232.6611 -898.2793 -1231.6299 -897.1074 Q-1230.5986 -895.9355 -1230.5986 -893.873 ZM-1237.4268 -893.873 Q-1237.4268 -892.1387 -1236.6846 -891.2324 Q-1235.9424 -890.3262 -1234.5205 -890.3262 Q-1233.0986 -890.3262 -1232.3721 -891.2246 Q-1231.6455 -892.123 -1231.6455 -893.873 Q-1231.6455 -895.6074 -1232.3721 -896.498 Q-1233.0986 -897.3887 -1234.5205 -897.3887 Q-1235.9424 -897.3887 -1236.6846 -896.4902 Q-1237.4268 -895.5918 -1237.4268 -893.873 Z"></path><path style="fill:none;" d="M-1194.6931 -981.5588 L-1195.1263 -981.8085 L-1195.5598 -981.5594"></path><path style="fill:none;" d="M-1216.782 -969.3652 L-1217.2155 -969.1161 L-1217.6484 -969.3661"></path><path style="fill:rgb(0,5,255); stroke:none;" d="M-1238.2671 -979.0548 L-1239.4077 -979.0548 L-1244.0952 -986.2423 L-1244.1421 -986.2423 Q-1244.0483 -984.9767 -1244.0483 -983.9298 L-1244.0483 -979.0548 L-1244.9702 -979.0548 L-1244.9702 -987.6173 L-1243.8452 -987.6173 L-1239.1733 -980.4611 L-1239.1265 -980.4611 Q-1239.1265 -980.6173 -1239.1733 -981.4767 Q-1239.2202 -982.3361 -1239.2046 -982.7111 L-1239.2046 -987.6173 L-1238.2671 -987.6173 L-1238.2671 -979.0548 Z"></path><path style="fill:rgb(0,5,255); stroke:none;" d="M-1250.7202 -979.0548 L-1251.7202 -979.0548 L-1251.7202 -983.0861 L-1256.2358 -983.0861 L-1256.2358 -979.0548 L-1257.2358 -979.0548 L-1257.2358 -987.6173 L-1256.2358 -987.6173 L-1256.2358 -983.9767 L-1251.7202 -983.9767 L-1251.7202 -987.6173 L-1250.7202 -987.6173 L-1250.7202 -979.0548 Z"></path><path style="fill:rgb(0,5,255); stroke:none;" d="M-1245.9702 -977.2454 L-1249.7202 -977.2454 L-1249.7202 -977.8079 L-1248.2202 -979.3235 Q-1247.5327 -980.011 -1247.314 -980.3079 Q-1247.0952 -980.6048 -1246.9858 -980.886 Q-1246.8765 -981.1673 -1246.8765 -981.4954 Q-1246.8765 -981.9485 -1247.1499 -982.2142 Q-1247.4233 -982.4798 -1247.9233 -982.4798 Q-1248.2671 -982.4798 -1248.5874 -982.3626 Q-1248.9077 -982.2454 -1249.2983 -981.9485 L-1249.6421 -982.386 Q-1248.8608 -983.0423 -1247.9233 -983.0423 Q-1247.1265 -983.0423 -1246.6655 -982.6282 Q-1246.2046 -982.2142 -1246.2046 -981.5267 Q-1246.2046 -980.9798 -1246.5093 -980.4485 Q-1246.814 -979.9173 -1247.6577 -979.1048 L-1248.9077 -977.886 L-1248.9077 -977.8548 L-1245.9702 -977.8548 L-1245.9702 -977.2454 Z"></path><path style="fill:rgb(230,0,0); stroke:none;" d="M-1213.278 -943.7314 Q-1213.278 -941.6689 -1214.317 -940.4892 Q-1215.3561 -939.3095 -1217.1998 -939.3095 Q-1219.0905 -939.3095 -1220.1217 -940.4736 Q-1221.153 -941.6376 -1221.153 -943.747 Q-1221.153 -945.8408 -1220.1217 -946.9892 Q-1219.0905 -948.1376 -1217.1998 -948.1376 Q-1215.3405 -948.1376 -1214.3092 -946.9658 Q-1213.278 -945.7939 -1213.278 -943.7314 ZM-1220.1061 -943.7314 Q-1220.1061 -941.997 -1219.3639 -941.0908 Q-1218.6217 -940.1845 -1217.1998 -940.1845 Q-1215.778 -940.1845 -1215.0514 -941.0829 Q-1214.3248 -941.9814 -1214.3248 -943.7314 Q-1214.3248 -945.4658 -1215.0514 -946.3564 Q-1215.778 -947.247 -1217.1998 -947.247 Q-1218.6217 -947.247 -1219.3639 -946.3486 Q-1220.1061 -945.4501 -1220.1061 -943.7314 Z"></path><path style="fill:none;" d="M-1235.1548 -821.7459 L-1235.588 -821.9956 L-1236.0212 -821.7459"></path><path style="fill:rgb(0,5,255); stroke:none;" d="M-1254.2555 -805.1468 L-1255.3961 -805.1468 L-1260.0836 -812.3343 L-1260.1305 -812.3343 Q-1260.0367 -811.0687 -1260.0367 -810.0218 L-1260.0367 -805.1468 L-1260.9586 -805.1468 L-1260.9586 -813.7093 L-1259.8336 -813.7093 L-1255.1617 -806.553 L-1255.1149 -806.553 Q-1255.1149 -806.7093 -1255.1617 -807.5687 Q-1255.2086 -808.428 -1255.193 -808.803 L-1255.193 -813.7093 L-1254.2555 -813.7093 L-1254.2555 -805.1468 Z"></path><path style="fill:rgb(0,5,255); stroke:none;" d="M-1266.7086 -805.1468 L-1267.7086 -805.1468 L-1267.7086 -809.178 L-1272.2242 -809.178 L-1272.2242 -805.1468 L-1273.2242 -805.1468 L-1273.2242 -813.7093 L-1272.2242 -813.7093 L-1272.2242 -810.0687 L-1267.7086 -810.0687 L-1267.7086 -813.7093 L-1266.7086 -813.7093 L-1266.7086 -805.1468 Z"></path><path style="fill:rgb(0,5,255); stroke:none;" d="M-1261.9586 -803.3374 L-1265.7086 -803.3374 L-1265.7086 -803.8999 L-1264.2086 -805.4155 Q-1263.5211 -806.103 -1263.3024 -806.3999 Q-1263.0836 -806.6968 -1262.9742 -806.978 Q-1262.8649 -807.2593 -1262.8649 -807.5874 Q-1262.8649 -808.0405 -1263.1383 -808.3062 Q-1263.4117 -808.5718 -1263.9117 -808.5718 Q-1264.2555 -808.5718 -1264.5758 -808.4546 Q-1264.8961 -808.3374 -1265.2867 -808.0405 L-1265.6305 -808.478 Q-1264.8492 -809.1343 -1263.9117 -809.1343 Q-1263.1149 -809.1343 -1262.6539 -808.7202 Q-1262.193 -808.3062 -1262.193 -807.6187 Q-1262.193 -807.0718 -1262.4977 -806.5405 Q-1262.8024 -806.0093 -1263.6461 -805.1968 L-1264.8961 -803.978 L-1264.8961 -803.9468 L-1261.9586 -803.9468 L-1261.9586 -803.3374 Z"></path><path style="fill:rgb(230,0,0); stroke:none;" d="M-1231.6505 -847.521 Q-1231.6505 -845.4585 -1232.6896 -844.2788 Q-1233.7286 -843.0991 -1235.5724 -843.0991 Q-1237.463 -843.0991 -1238.4943 -844.2632 Q-1239.5255 -845.4272 -1239.5255 -847.5366 Q-1239.5255 -849.6304 -1238.4943 -850.7788 Q-1237.463 -851.9272 -1235.5724 -851.9272 Q-1233.713 -851.9272 -1232.6818 -850.7554 Q-1231.6505 -849.5835 -1231.6505 -847.521 ZM-1238.4786 -847.521 Q-1238.4786 -845.7866 -1237.7365 -844.8804 Q-1236.9943 -843.9741 -1235.5724 -843.9741 Q-1234.1505 -843.9741 -1233.424 -844.8726 Q-1232.6974 -845.771 -1232.6974 -847.521 Q-1232.6974 -849.2554 -1233.424 -850.146 Q-1234.1505 -851.0366 -1235.5724 -851.0366 Q-1236.9943 -851.0366 -1237.7365 -850.1382 Q-1238.4786 -849.2397 -1238.4786 -847.521 Z"></path><path style="fill:none;" d="M-1075.4825 -963.266 L-1075.9152 -963.0153 L-1075.9152 -962.5153"></path><path style="fill:none;" d="M-1054.3289 -975.5272 L-1053.8962 -975.7779 L-1053.4636 -975.5272"></path><path style="fill:rgb(0,5,255); stroke:none;" d="M-1028.5258 -958.859 L-1029.6664 -958.859 L-1034.3539 -966.0465 L-1034.4008 -966.0465 Q-1034.307 -964.7809 -1034.307 -963.734 L-1034.307 -958.859 L-1035.2289 -958.859 L-1035.2289 -967.4215 L-1034.1039 -967.4215 L-1029.432 -960.2653 L-1029.3851 -960.2653 Q-1029.3851 -960.4215 -1029.432 -961.2809 Q-1029.4789 -962.1403 -1029.4633 -962.5153 L-1029.4633 -967.4215 L-1028.5258 -967.4215 L-1028.5258 -958.859 Z"></path><path style="fill:rgb(0,5,255); stroke:none;" d="M-1021.0101 -958.859 L-1022.0101 -958.859 L-1022.0101 -962.8903 L-1026.5258 -962.8903 L-1026.5258 -958.859 L-1027.5258 -958.859 L-1027.5258 -967.4215 L-1026.5258 -967.4215 L-1026.5258 -963.7809 L-1022.0101 -963.7809 L-1022.0101 -967.4215 L-1021.0101 -967.4215 L-1021.0101 -958.859 Z"></path><path style="fill:rgb(0,5,255); stroke:none;" d="M-1016.2601 -957.0496 L-1020.0101 -957.0496 L-1020.0101 -957.6121 L-1018.5101 -959.1277 Q-1017.8226 -959.8152 -1017.6039 -960.1121 Q-1017.3851 -960.409 -1017.2758 -960.6902 Q-1017.1664 -960.9715 -1017.1664 -961.2996 Q-1017.1664 -961.7527 -1017.4398 -962.0184 Q-1017.7133 -962.284 -1018.2133 -962.284 Q-1018.557 -962.284 -1018.8773 -962.1668 Q-1019.1976 -962.0496 -1019.5883 -961.7527 L-1019.932 -962.1902 Q-1019.1508 -962.8465 -1018.2133 -962.8465 Q-1017.4164 -962.8465 -1016.9554 -962.4324 Q-1016.4945 -962.0184 -1016.4945 -961.3309 Q-1016.4945 -960.784 -1016.7992 -960.2527 Q-1017.1039 -959.7215 -1017.9476 -958.909 L-1019.1976 -957.6902 L-1019.1976 -957.659 L-1016.2601 -957.659 L-1016.2601 -957.0496 Z"></path><path style="fill:rgb(230,0,0); stroke:none;" d="M-1049.9587 -1001.2332 Q-1049.9587 -999.1707 -1050.9978 -997.991 Q-1052.0369 -996.8113 -1053.8806 -996.8113 Q-1055.7712 -996.8113 -1056.8025 -997.9754 Q-1057.8337 -999.1395 -1057.8337 -1001.2488 Q-1057.8337 -1003.3426 -1056.8025 -1004.491 Q-1055.7712 -1005.6395 -1053.8806 -1005.6395 Q-1052.0212 -1005.6395 -1050.99 -1004.4676 Q-1049.9587 -1003.2957 -1049.9587 -1001.2332 ZM-1056.7869 -1001.2332 Q-1056.7869 -999.4988 -1056.0447 -998.5926 Q-1055.3025 -997.6863 -1053.8806 -997.6863 Q-1052.4587 -997.6863 -1051.7322 -998.5848 Q-1051.0056 -999.4832 -1051.0056 -1001.2332 Q-1051.0056 -1002.9676 -1051.7322 -1003.8582 Q-1052.4587 -1004.7488 -1053.8806 -1004.7488 Q-1055.3025 -1004.7488 -1056.0447 -1003.8504 Q-1056.7869 -1002.952 -1056.7869 -1001.2332 Z"></path><path style="fill:none;" d="M-1015.0599 -919.5075 L-1014.6267 -919.2578 L-1014.1935 -919.5075"></path><path style="fill:none;" d="M-993.0409 -931.7006 L-992.6077 -931.9503 L-992.1746 -931.7006"></path><path style="fill:rgb(0,5,255); stroke:none;" d="M-967.2371 -915.1016 L-968.3777 -915.1016 L-973.0652 -922.2891 L-973.1121 -922.2891 Q-973.0184 -921.0234 -973.0184 -919.9766 L-973.0184 -915.1016 L-973.9402 -915.1016 L-973.9402 -923.6641 L-972.8152 -923.6641 L-968.1434 -916.5078 L-968.0965 -916.5078 Q-968.0965 -916.6641 -968.1434 -917.5234 Q-968.1902 -918.3828 -968.1746 -918.7578 L-968.1746 -923.6641 L-967.2371 -923.6641 L-967.2371 -915.1016 Z"></path><path style="fill:rgb(0,5,255); stroke:none;" d="M-959.7215 -915.1016 L-960.7215 -915.1016 L-960.7215 -919.1328 L-965.2371 -919.1328 L-965.2371 -915.1016 L-966.2371 -915.1016 L-966.2371 -923.6641 L-965.2371 -923.6641 L-965.2371 -920.0234 L-960.7215 -920.0234 L-960.7215 -923.6641 L-959.7215 -923.6641 L-959.7215 -915.1016 Z"></path><path style="fill:rgb(0,5,255); stroke:none;" d="M-954.9715 -913.2922 L-958.7215 -913.2922 L-958.7215 -913.8547 L-957.2215 -915.3703 Q-956.534 -916.0578 -956.3152 -916.3547 Q-956.0965 -916.6516 -955.9871 -916.9328 Q-955.8777 -917.2141 -955.8777 -917.5422 Q-955.8777 -917.9953 -956.1512 -918.2609 Q-956.4246 -918.5266 -956.9246 -918.5266 Q-957.2684 -918.5266 -957.5887 -918.4094 Q-957.909 -918.2922 -958.2996 -917.9953 L-958.6434 -918.4328 Q-957.8621 -919.0891 -956.9246 -919.0891 Q-956.1277 -919.0891 -955.6668 -918.675 Q-955.2059 -918.2609 -955.2059 -917.5734 Q-955.2059 -917.0266 -955.5106 -916.4953 Q-955.8152 -915.9641 -956.659 -915.1516 L-957.909 -913.9328 L-957.909 -913.9016 L-954.9715 -913.9016 L-954.9715 -913.2922 Z"></path><path style="fill:rgb(230,0,0); stroke:none;" d="M-988.6702 -957.4758 Q-988.6702 -955.4133 -989.7093 -954.2336 Q-990.7484 -953.0539 -992.5921 -953.0539 Q-994.4827 -953.0539 -995.514 -954.218 Q-996.5452 -955.382 -996.5452 -957.4914 Q-996.5452 -959.5851 -995.514 -960.7336 Q-994.4827 -961.882 -992.5921 -961.882 Q-990.7327 -961.882 -989.7015 -960.7101 Q-988.6702 -959.5383 -988.6702 -957.4758 ZM-995.4984 -957.4758 Q-995.4984 -955.7414 -994.7562 -954.8351 Q-994.014 -953.9289 -992.5921 -953.9289 Q-991.1702 -953.9289 -990.4437 -954.8273 Q-989.7171 -955.7258 -989.7171 -957.4758 Q-989.7171 -959.2101 -990.4437 -960.1008 Q-991.1702 -960.9914 -992.5921 -960.9914 Q-994.014 -960.9914 -994.7562 -960.093 Q-995.4984 -959.1945 -995.4984 -957.4758 Z"></path><path style="fill:none;" d="M-1053.2776 -766.8471 L-1052.8444 -766.5974 L-1052.4111 -766.8471"></path><path style="fill:none;" d="M-1031.2587 -779.0403 L-1030.8254 -779.29 L-1030.3922 -779.0403"></path><path style="fill:rgb(0,5,255); stroke:none;" d="M-1005.4548 -762.4412 L-1006.5954 -762.4412 L-1011.2829 -769.6287 L-1011.3298 -769.6287 Q-1011.236 -768.363 -1011.236 -767.3162 L-1011.236 -762.4412 L-1012.1579 -762.4412 L-1012.1579 -771.0037 L-1011.0329 -771.0037 L-1006.361 -763.8474 L-1006.3141 -763.8474 Q-1006.3141 -764.0037 -1006.361 -764.863 Q-1006.4079 -765.7224 -1006.3923 -766.0974 L-1006.3923 -771.0037 L-1005.4548 -771.0037 L-1005.4548 -762.4412 Z"></path><path style="fill:rgb(0,5,255); stroke:none;" d="M-997.9391 -762.4412 L-998.9391 -762.4412 L-998.9391 -766.4724 L-1003.4548 -766.4724 L-1003.4548 -762.4412 L-1004.4548 -762.4412 L-1004.4548 -771.0037 L-1003.4548 -771.0037 L-1003.4548 -767.363 L-998.9391 -767.363 L-998.9391 -771.0037 L-997.9391 -771.0037 L-997.9391 -762.4412 Z"></path><path style="fill:rgb(0,5,255); stroke:none;" d="M-993.1891 -760.6318 L-996.9391 -760.6318 L-996.9391 -761.1943 L-995.4391 -762.7099 Q-994.7516 -763.3974 -994.5329 -763.6943 Q-994.3141 -763.9911 -994.2048 -764.2724 Q-994.0954 -764.5536 -994.0954 -764.8818 Q-994.0954 -765.3349 -994.3688 -765.6005 Q-994.6423 -765.8661 -995.1423 -765.8661 Q-995.486 -765.8661 -995.8063 -765.749 Q-996.1266 -765.6318 -996.5173 -765.3349 L-996.861 -765.7724 Q-996.0798 -766.4286 -995.1423 -766.4286 Q-994.3454 -766.4286 -993.8845 -766.0146 Q-993.4235 -765.6005 -993.4235 -764.913 Q-993.4235 -764.3661 -993.7282 -763.8349 Q-994.0329 -763.3036 -994.8766 -762.4911 L-996.1266 -761.2724 L-996.1266 -761.2411 L-993.1891 -761.2411 L-993.1891 -760.6318 Z"></path><path style="fill:rgb(230,0,0); stroke:none;" d="M-1026.8879 -804.8154 Q-1026.8879 -802.7529 -1027.927 -801.5732 Q-1028.9661 -800.3935 -1030.8098 -800.3935 Q-1032.7004 -800.3935 -1033.7317 -801.5576 Q-1034.7629 -802.7216 -1034.7629 -804.831 Q-1034.7629 -806.9247 -1033.7317 -808.0732 Q-1032.7004 -809.2216 -1030.8098 -809.2216 Q-1028.9504 -809.2216 -1027.9192 -808.0497 Q-1026.8879 -806.8779 -1026.8879 -804.8154 ZM-1033.7161 -804.8154 Q-1033.7161 -803.081 -1032.9739 -802.1747 Q-1032.2317 -801.2685 -1030.8098 -801.2685 Q-1029.3879 -801.2685 -1028.6614 -802.1669 Q-1027.9348 -803.0654 -1027.9348 -804.8154 Q-1027.9348 -806.5497 -1028.6614 -807.4404 Q-1029.3879 -808.331 -1030.8098 -808.331 Q-1032.2317 -808.331 -1032.9739 -807.4326 Q-1033.7161 -806.5341 -1033.7161 -804.8154 Z"></path><path style="fill:rgb(230,0,0); stroke:none;" d="M-1154.2334 -664.567 Q-1154.2334 -662.5045 -1155.2725 -661.3248 Q-1156.3115 -660.1451 -1158.1553 -660.1451 Q-1160.0459 -660.1451 -1161.0771 -661.3092 Q-1162.1084 -662.4733 -1162.1084 -664.5826 Q-1162.1084 -666.6764 -1161.0771 -667.8248 Q-1160.0459 -668.9733 -1158.1553 -668.9733 Q-1156.2959 -668.9733 -1155.2646 -667.8014 Q-1154.2334 -666.6295 -1154.2334 -664.567 ZM-1161.0615 -664.567 Q-1161.0615 -662.8326 -1160.3193 -661.9264 Q-1159.5771 -661.0201 -1158.1553 -661.0201 Q-1156.7334 -661.0201 -1156.0068 -661.9186 Q-1155.2803 -662.817 -1155.2803 -664.567 Q-1155.2803 -666.3014 -1156.0068 -667.192 Q-1156.7334 -668.0826 -1158.1553 -668.0826 Q-1159.5771 -668.0826 -1160.3193 -667.1842 Q-1161.0615 -666.2858 -1161.0615 -664.567 Z"></path><path style="fill:rgb(230,0,0); stroke:none;" d="M-1163.1084 -660.2701 L-1164.1084 -660.2701 L-1164.1084 -664.3014 L-1168.624 -664.3014 L-1168.624 -660.2701 L-1169.624 -660.2701 L-1169.624 -668.8326 L-1168.624 -668.8326 L-1168.624 -665.192 L-1164.1084 -665.192 L-1164.1084 -668.8326 L-1163.1084 -668.8326 L-1163.1084 -660.2701 Z"></path><path style="fill:rgb(230,0,0); stroke:none;" d="M-1216.2231 -800.6079 Q-1216.2231 -798.5454 -1217.2622 -797.3657 Q-1218.3013 -796.186 -1220.145 -796.186 Q-1222.0356 -796.186 -1223.0669 -797.3501 Q-1224.0981 -798.5142 -1224.0981 -800.6235 Q-1224.0981 -802.7173 -1223.0669 -803.8657 Q-1222.0356 -805.0142 -1220.145 -805.0142 Q-1218.2856 -805.0142 -1217.2544 -803.8423 Q-1216.2231 -802.6704 -1216.2231 -800.6079 ZM-1223.0513 -800.6079 Q-1223.0513 -798.8735 -1222.3091 -797.9673 Q-1221.5669 -797.061 -1220.145 -797.061 Q-1218.7231 -797.061 -1217.9966 -797.9595 Q-1217.27 -798.8579 -1217.27 -800.6079 Q-1217.27 -802.3423 -1217.9966 -803.2329 Q-1218.7231 -804.1235 -1220.145 -804.1235 Q-1221.5669 -804.1235 -1222.3091 -803.2251 Q-1223.0513 -802.3267 -1223.0513 -800.6079 Z"></path><path style="fill:rgb(230,0,0); stroke:none;" d="M-1223.0251 -656.7833 Q-1223.0251 -654.7208 -1224.0642 -653.5411 Q-1225.1033 -652.3614 -1226.947 -652.3614 Q-1228.8376 -652.3614 -1229.8689 -653.5255 Q-1230.9001 -654.6895 -1230.9001 -656.7989 Q-1230.9001 -658.8926 -1229.8689 -660.0411 Q-1228.8376 -661.1895 -1226.947 -661.1895 Q-1225.0876 -661.1895 -1224.0564 -660.0176 Q-1223.0251 -658.8458 -1223.0251 -656.7833 ZM-1229.8533 -656.7833 Q-1229.8533 -655.0489 -1229.1111 -654.1426 Q-1228.3689 -653.2364 -1226.947 -653.2364 Q-1225.5251 -653.2364 -1224.7986 -654.1348 Q-1224.072 -655.0333 -1224.072 -656.7833 Q-1224.072 -658.5176 -1224.7986 -659.4083 Q-1225.5251 -660.2989 -1226.947 -660.2989 Q-1228.3689 -660.2989 -1229.1111 -659.4005 Q-1229.8533 -658.502 -1229.8533 -656.7833 Z"></path><path style="fill:rgb(230,0,0); stroke:none;" d="M-1231.9001 -652.4864 L-1232.9001 -652.4864 L-1232.9001 -656.5176 L-1237.4158 -656.5176 L-1237.4158 -652.4864 L-1238.4158 -652.4864 L-1238.4158 -661.0489 L-1237.4158 -661.0489 L-1237.4158 -657.4083 L-1232.9001 -657.4083 L-1232.9001 -661.0489 L-1231.9001 -661.0489 L-1231.9001 -652.4864 Z"></path><path style="fill:rgb(230,0,0); stroke:none;" d="M-1186.4204 -706.361 Q-1186.4204 -704.2985 -1187.4595 -703.1188 Q-1188.4985 -701.9391 -1190.3423 -701.9391 Q-1192.2329 -701.9391 -1193.2642 -703.1032 Q-1194.2954 -704.2673 -1194.2954 -706.3766 Q-1194.2954 -708.4704 -1193.2642 -709.6188 Q-1192.2329 -710.7673 -1190.3423 -710.7673 Q-1188.4829 -710.7673 -1187.4517 -709.5954 Q-1186.4204 -708.4235 -1186.4204 -706.361 ZM-1193.2485 -706.361 Q-1193.2485 -704.6266 -1192.5063 -703.7204 Q-1191.7642 -702.8141 -1190.3423 -702.8141 Q-1188.9204 -702.8141 -1188.1938 -703.7126 Q-1187.4673 -704.611 -1187.4673 -706.361 Q-1187.4673 -708.0954 -1188.1938 -708.986 Q-1188.9204 -709.8766 -1190.3423 -709.8766 Q-1191.7642 -709.8766 -1192.5063 -708.9782 Q-1193.2485 -708.0798 -1193.2485 -706.361 Z"></path><path style="fill:rgb(230,0,0); stroke:none;" d="M-1203.8113 -706.361 Q-1203.8113 -704.2985 -1204.8503 -703.1188 Q-1205.8894 -701.9391 -1207.7332 -701.9391 Q-1209.6238 -701.9391 -1210.655 -703.1032 Q-1211.6863 -704.2673 -1211.6863 -706.3766 Q-1211.6863 -708.4704 -1210.655 -709.6188 Q-1209.6238 -710.7673 -1207.7332 -710.7673 Q-1205.8738 -710.7673 -1204.8425 -709.5954 Q-1203.8113 -708.4235 -1203.8113 -706.361 ZM-1210.6394 -706.361 Q-1210.6394 -704.6266 -1209.8972 -703.7204 Q-1209.155 -702.8141 -1207.7332 -702.8141 Q-1206.3113 -702.8141 -1205.5847 -703.7126 Q-1204.8582 -704.611 -1204.8582 -706.361 Q-1204.8582 -708.0954 -1205.5847 -708.986 Q-1206.3113 -709.8766 -1207.7332 -709.8766 Q-1209.155 -709.8766 -1209.8972 -708.9782 Q-1210.6394 -708.0798 -1210.6394 -706.361 Z"></path><path style="stroke:none;" d="M-1202.8113 -708.6423 L-1202.8113 -709.236 L-1199.4519 -709.236 L-1199.4519 -708.6423 L-1202.8113 -708.6423 Z"></path><path style="stroke:none;" d="M-1126.0571 -875.2918 Q-1127.4634 -875.2918 -1128.2837 -874.3543 Q-1129.104 -873.4168 -1129.104 -871.7762 Q-1129.104 -870.1043 -1128.3149 -869.1824 Q-1127.5259 -868.2606 -1126.0728 -868.2606 Q-1125.1665 -868.2606 -1124.0259 -868.5887 L-1124.0259 -867.7137 Q-1124.9165 -867.3699 -1126.2134 -867.3699 Q-1128.104 -867.3699 -1129.1353 -868.5262 Q-1130.1665 -869.6824 -1130.1665 -871.7918 Q-1130.1665 -873.1199 -1129.6743 -874.1121 Q-1129.1821 -875.1043 -1128.2446 -875.6434 Q-1127.3071 -876.1824 -1126.0415 -876.1824 Q-1124.6978 -876.1824 -1123.6821 -875.6981 L-1124.104 -874.8387 Q-1125.0884 -875.2918 -1126.0571 -875.2918 ZM-1116.7524 -870.7137 Q-1116.7524 -869.1356 -1117.5415 -868.2527 Q-1118.3306 -867.3699 -1119.7368 -867.3699 Q-1120.5962 -867.3699 -1121.2603 -867.7762 Q-1121.9243 -868.1824 -1122.2915 -868.9402 Q-1122.6587 -869.6981 -1122.6587 -870.7137 Q-1122.6587 -872.2762 -1121.8696 -873.159 Q-1121.0806 -874.0418 -1119.6899 -874.0418 Q-1118.3462 -874.0418 -1117.5493 -873.1434 Q-1116.7524 -872.2449 -1116.7524 -870.7137 ZM-1121.6431 -870.7137 Q-1121.6431 -869.4793 -1121.1509 -868.8387 Q-1120.6587 -868.1981 -1119.7056 -868.1981 Q-1118.7524 -868.1981 -1118.2603 -868.8387 Q-1117.7681 -869.4793 -1117.7681 -870.7137 Q-1117.7681 -871.9324 -1118.2603 -872.5731 Q-1118.7524 -873.2137 -1119.7212 -873.2137 Q-1120.6743 -873.2137 -1121.1587 -872.5809 Q-1121.6431 -871.9481 -1121.6431 -870.7137 Z"></path><path style="stroke:none;" d="M-1112.1899 -875.873 Q-1112.1899 -875.3262 -1112.5024 -874.9746 Q-1112.8149 -874.623 -1113.3774 -874.5137 L-1113.3774 -874.4824 Q-1112.6899 -874.3887 -1112.354 -874.0371 Q-1112.0181 -873.6855 -1112.0181 -873.123 Q-1112.0181 -872.2949 -1112.5884 -871.8574 Q-1113.1587 -871.4199 -1114.1899 -871.4199 Q-1114.6431 -871.4199 -1115.0259 -871.4902 Q-1115.4087 -871.5605 -1115.7524 -871.7324 L-1115.7524 -872.3418 Q-1115.3931 -872.1699 -1114.9712 -872.0684 Q-1114.5493 -871.9668 -1114.1743 -871.9668 Q-1112.6899 -871.9668 -1112.6899 -873.1387 Q-1112.6899 -874.1699 -1114.3306 -874.1699 L-1114.8931 -874.1699 L-1114.8931 -874.7324 L-1114.3149 -874.7324 Q-1113.6431 -874.7324 -1113.2524 -875.0293 Q-1112.8618 -875.3262 -1112.8618 -875.8418 Q-1112.8618 -876.2637 -1113.1509 -876.498 Q-1113.4399 -876.7324 -1113.9399 -876.7324 Q-1114.3149 -876.7324 -1114.6431 -876.6309 Q-1114.9712 -876.5293 -1115.3931 -876.2637 L-1115.7212 -876.7012 Q-1115.3774 -876.9824 -1114.9165 -877.1387 Q-1114.4556 -877.2949 -1113.9556 -877.2949 Q-1113.1118 -877.2949 -1112.6509 -876.9121 Q-1112.1899 -876.5293 -1112.1899 -875.873 Z"></path><path style="stroke:none;" d="M-1108.8774 -874.623 L-1107.2681 -874.623 L-1107.2681 -874.0762 L-1108.8774 -874.0762 L-1108.8774 -872.4199 L-1109.4087 -872.4199 L-1109.4087 -874.0762 L-1111.0181 -874.0762 L-1111.0181 -874.623 L-1109.4087 -874.623 L-1109.4087 -876.2949 L-1108.8774 -876.2949 L-1108.8774 -874.623 Z"></path><path style="fill:rgb(0,5,255); stroke:none;" d="M-1147.1056 -892.3813 L-1148.2462 -892.3813 L-1152.9337 -899.5688 L-1152.9806 -899.5688 Q-1152.8868 -898.3032 -1152.8868 -897.2563 L-1152.8868 -892.3813 L-1153.8087 -892.3813 L-1153.8087 -900.9438 L-1152.6837 -900.9438 L-1148.0118 -893.7876 L-1147.965 -893.7876 Q-1147.965 -893.9438 -1148.0118 -894.8032 Q-1148.0587 -895.6626 -1148.0431 -896.0376 L-1148.0431 -900.9438 L-1147.1056 -900.9438 L-1147.1056 -892.3813 Z"></path><path style="fill:rgb(0,5,255); stroke:none;" d="M-1147.1056 -840.5596 L-1148.2462 -840.5596 L-1152.9337 -847.7471 L-1152.9806 -847.7471 Q-1152.8868 -846.4814 -1152.8868 -845.4346 L-1152.8868 -840.5596 L-1153.8087 -840.5596 L-1153.8087 -849.1221 L-1152.6837 -849.1221 L-1148.0118 -841.9658 L-1147.965 -841.9658 Q-1147.965 -842.1221 -1148.0118 -842.9814 Q-1148.0587 -843.8408 -1148.0431 -844.2158 L-1148.0431 -849.1221 L-1147.1056 -849.1221 L-1147.1056 -840.5596 Z"></path><path style="stroke:none;" d="M-1146.1056 -846.9877 L-1146.1056 -847.5814 L-1142.7462 -847.5814 L-1142.7462 -846.9877 L-1146.1056 -846.9877 Z"></path><path style="fill:rgb(0,5,255); stroke:none;" d="M-1095.2839 -892.3813 L-1096.4246 -892.3813 L-1101.1121 -899.5688 L-1101.1589 -899.5688 Q-1101.0652 -898.3032 -1101.0652 -897.2563 L-1101.0652 -892.3813 L-1101.9871 -892.3813 L-1101.9871 -900.9438 L-1100.8621 -900.9438 L-1096.1902 -893.7876 L-1096.1433 -893.7876 Q-1096.1433 -893.9438 -1096.1902 -894.8032 Q-1096.2371 -895.6626 -1096.2214 -896.0376 L-1096.2214 -900.9438 L-1095.2839 -900.9438 L-1095.2839 -892.3813 Z"></path><path style="fill:rgb(0,5,255); stroke:none;" d="M-1095.2839 -840.5596 L-1096.4246 -840.5596 L-1101.1121 -847.7471 L-1101.1589 -847.7471 Q-1101.0652 -846.4814 -1101.0652 -845.4346 L-1101.0652 -840.5596 L-1101.9871 -840.5596 L-1101.9871 -849.1221 L-1100.8621 -849.1221 L-1096.1902 -841.9658 L-1096.1433 -841.9658 Q-1096.1433 -842.1221 -1096.1902 -842.9814 Q-1096.2371 -843.8408 -1096.2214 -844.2158 L-1096.2214 -849.1221 L-1095.2839 -849.1221 L-1095.2839 -840.5596 Z"></path><path style="fill:rgb(0,5,255); stroke:none;" d="M-1075.8595 -696.8752 L-1077.0001 -696.8752 L-1081.6876 -704.0627 L-1081.7345 -704.0627 Q-1081.6407 -702.7971 -1081.6407 -701.7502 L-1081.6407 -696.8752 L-1082.5626 -696.8752 L-1082.5626 -705.4377 L-1081.4376 -705.4377 L-1076.7657 -698.2814 L-1076.7189 -698.2814 Q-1076.7189 -698.4377 -1076.7657 -699.2971 Q-1076.8126 -700.1564 -1076.797 -700.5314 L-1076.797 -705.4377 L-1075.8595 -705.4377 L-1075.8595 -696.8752 Z"></path></g><g transform="translate(1277,1009)" style="stroke-linecap:butt; font-size:8px; fill:gray; text-rendering:geometricPrecision; image-rendering:optimizeQuality; color-rendering:optimizeQuality; font-family:'Open Sans'; font-style:italic; stroke:gray; color-interpolation:linearRGB; stroke-miterlimit:5;"><path style="stroke:none;" d="M-1194.7748 -893.361 Q-1194.7748 -894.6891 -1194.306 -895.8141 Q-1193.8373 -896.9391 -1192.806 -898.0173 L-1192.1967 -898.0173 Q-1193.1654 -896.9548 -1193.6498 -895.7829 Q-1194.1342 -894.611 -1194.1342 -893.3766 Q-1194.1342 -892.0485 -1193.6967 -891.0329 L-1194.2123 -891.0329 Q-1194.7748 -892.0641 -1194.7748 -893.361 ZM-1191.3217 -894.6735 L-1191.8217 -892.2985 L-1192.4779 -892.2985 L-1191.2748 -898.0173 L-1190.0248 -898.0173 Q-1188.2904 -898.0173 -1188.2904 -896.5798 Q-1188.2904 -895.2204 -1189.7279 -894.8298 L-1188.7904 -892.2985 L-1189.5092 -892.2985 L-1190.3373 -894.6735 L-1191.3217 -894.6735 ZM-1190.7435 -897.4235 Q-1191.1342 -895.5016 -1191.1967 -895.2516 L-1190.5404 -895.2516 Q-1189.7904 -895.2516 -1189.3842 -895.5798 Q-1188.9779 -895.9079 -1188.9779 -896.5329 Q-1188.9779 -897.0016 -1189.2357 -897.2126 Q-1189.4935 -897.4235 -1190.0873 -897.4235 L-1190.7435 -897.4235 ZM-1186.3177 -895.6735 Q-1186.3177 -894.3454 -1186.7943 -893.2126 Q-1187.2709 -892.0798 -1188.2865 -891.0329 L-1188.8959 -891.0329 Q-1186.9584 -893.1891 -1186.9584 -895.6735 Q-1186.9584 -897.0016 -1187.3959 -898.0173 L-1186.8802 -898.0173 Q-1186.3177 -896.9548 -1186.3177 -895.6735 Z"></path><path style="fill:none; stroke:black;" d="M-1150.4572 -926.3312 L-1150.4572 -926.8312 L-1150.0251 -927.0829"></path><path style="stroke:none;" d="M-1194.7343 -845.7521 Q-1194.7343 -847.0803 -1194.2655 -848.2053 Q-1193.7968 -849.3303 -1192.7655 -850.4084 L-1192.1561 -850.4084 Q-1193.1249 -849.3459 -1193.6093 -848.174 Q-1194.0936 -847.0021 -1194.0936 -845.7678 Q-1194.0936 -844.4396 -1193.6561 -843.424 L-1194.1718 -843.424 Q-1194.7343 -844.4553 -1194.7343 -845.7521 ZM-1191.2811 -847.0646 L-1191.7811 -844.6896 L-1192.4374 -844.6896 L-1191.2343 -850.4084 L-1189.9843 -850.4084 Q-1188.2499 -850.4084 -1188.2499 -848.9709 Q-1188.2499 -847.6115 -1189.6874 -847.2209 L-1188.7499 -844.6896 L-1189.4686 -844.6896 L-1190.2968 -847.0646 L-1191.2811 -847.0646 ZM-1190.703 -849.8146 Q-1191.0936 -847.8928 -1191.1561 -847.6428 L-1190.4999 -847.6428 Q-1189.7499 -847.6428 -1189.3436 -847.9709 Q-1188.9374 -848.299 -1188.9374 -848.924 Q-1188.9374 -849.3928 -1189.1952 -849.6037 Q-1189.453 -849.8146 -1190.0468 -849.8146 L-1190.703 -849.8146 ZM-1186.2772 -848.0646 Q-1186.2772 -846.7365 -1186.7538 -845.6037 Q-1187.2303 -844.4709 -1188.246 -843.424 L-1188.8553 -843.424 Q-1186.9178 -845.5803 -1186.9178 -848.0646 Q-1186.9178 -849.3928 -1187.3553 -850.4084 L-1186.8397 -850.4084 Q-1186.2772 -849.3459 -1186.2772 -848.0646 Z"></path><path style="fill:none; stroke:black;" d="M-1150.0256 -814.1696 L-1150.4572 -814.4222 L-1150.9171 -814.2263"></path><path style="fill:none; stroke:black;" d="M-1099.0679 -927.0825 L-1098.6355 -926.8312 L-1098.6355 -926.3312"></path><path style="fill:none; stroke:black;" d="M-1068.912 -896.5376 L-1068.412 -896.5376 L-1068.2148 -896.9971"></path><path style="fill:none; stroke:black;" d="M-1098.6355 -814.9222 L-1098.6355 -814.4222 L-1099.0673 -814.1701"></path><path style="fill:none; stroke:black;" d="M-1068.1594 -845.1473 L-1068.412 -844.7158 L-1068.2148 -844.2563"></path><path style="fill:none; stroke:black;" d="M-1052.8333 -686.1367 L-1053.265 -685.8846 L-1053.6968 -686.1367"></path><path style="fill:none; stroke:black;" d="M-1104.6554 -686.1371 L-1105.0869 -685.8846 L-1105.0869 -685.3846"></path><path style="stroke:none;" d="M-1184.6124 -916.3103 Q-1184.6124 -917.6384 -1184.1437 -918.7634 Q-1183.6749 -919.8884 -1182.6437 -920.9666 L-1182.0343 -920.9666 Q-1183.0031 -919.9041 -1183.4874 -918.7322 Q-1183.9718 -917.5603 -1183.9718 -916.3259 Q-1183.9718 -914.9978 -1183.5343 -913.9822 L-1184.0499 -913.9822 Q-1184.6124 -915.0134 -1184.6124 -916.3103 ZM-1179.0968 -916.9041 Q-1179.0968 -916.0759 -1179.6437 -915.6228 Q-1180.1906 -915.1697 -1181.1906 -915.1697 Q-1181.5968 -915.1697 -1181.9093 -915.2244 Q-1182.2218 -915.2791 -1182.5031 -915.4197 L-1182.5031 -916.0759 Q-1181.8781 -915.7478 -1181.1749 -915.7478 Q-1180.5499 -915.7478 -1180.1749 -916.0447 Q-1179.7999 -916.3416 -1179.7999 -916.8572 Q-1179.7999 -917.1697 -1180.0031 -917.3962 Q-1180.2062 -917.6228 -1180.7687 -917.9509 Q-1181.3624 -918.2791 -1181.589 -918.6072 Q-1181.8156 -918.9353 -1181.8156 -919.3884 Q-1181.8156 -920.1228 -1181.2999 -920.5837 Q-1180.7843 -921.0447 -1179.9406 -921.0447 Q-1179.5656 -921.0447 -1179.2296 -920.9666 Q-1178.8937 -920.8884 -1178.5187 -920.7166 L-1178.7843 -920.1228 Q-1179.0343 -920.2791 -1179.3546 -920.365 Q-1179.6749 -920.4509 -1179.9406 -920.4509 Q-1180.4718 -920.4509 -1180.7921 -920.1775 Q-1181.1124 -919.9041 -1181.1124 -919.4353 Q-1181.1124 -919.2322 -1181.0421 -919.0837 Q-1180.9718 -918.9353 -1180.8312 -918.8025 Q-1180.6906 -918.6697 -1180.2687 -918.4197 Q-1179.7062 -918.0759 -1179.5031 -917.8806 Q-1179.2999 -917.6853 -1179.1984 -917.4509 Q-1179.0968 -917.2166 -1179.0968 -916.9041 ZM-1176.6906 -918.6228 Q-1176.6906 -917.2947 -1177.1671 -916.1619 Q-1177.6437 -915.0291 -1178.6593 -913.9822 L-1179.2687 -913.9822 Q-1177.3312 -916.1384 -1177.3312 -918.6228 Q-1177.3312 -919.9509 -1177.7687 -920.9666 L-1177.2531 -920.9666 Q-1176.6906 -919.9041 -1176.6906 -918.6228 Z"></path><path style="fill:none; stroke:black;" d="M-1172.726 -937.4156 L-1173.1775 -937.6303 L-1173.5205 -937.2665"></path><path style="stroke:none;" d="M-1186.4285 -940.1279 Q-1186.4285 -941.456 -1185.9597 -942.581 Q-1185.491 -943.706 -1184.4597 -944.7841 L-1183.8503 -944.7841 Q-1184.8191 -943.7216 -1185.3035 -942.5497 Q-1185.7878 -941.3779 -1185.7878 -940.1435 Q-1185.7878 -938.8154 -1185.3503 -937.7997 L-1185.866 -937.7997 Q-1186.4285 -938.831 -1186.4285 -940.1279 ZM-1180.9128 -940.7216 Q-1180.9128 -939.8935 -1181.4597 -939.4404 Q-1182.0066 -938.9872 -1183.0066 -938.9872 Q-1183.4128 -938.9872 -1183.7253 -939.0419 Q-1184.0378 -939.0966 -1184.3191 -939.2372 L-1184.3191 -939.8935 Q-1183.6941 -939.5654 -1182.991 -939.5654 Q-1182.366 -939.5654 -1181.991 -939.8622 Q-1181.616 -940.1591 -1181.616 -940.6747 Q-1181.616 -940.9872 -1181.8191 -941.2138 Q-1182.0222 -941.4404 -1182.5847 -941.7685 Q-1183.1785 -942.0966 -1183.405 -942.4247 Q-1183.6316 -942.7529 -1183.6316 -943.206 Q-1183.6316 -943.9404 -1183.116 -944.4013 Q-1182.6003 -944.8622 -1181.7566 -944.8622 Q-1181.3816 -944.8622 -1181.0457 -944.7841 Q-1180.7097 -944.706 -1180.3347 -944.5341 L-1180.6003 -943.9404 Q-1180.8503 -944.0966 -1181.1707 -944.1826 Q-1181.491 -944.2685 -1181.7566 -944.2685 Q-1182.2878 -944.2685 -1182.6082 -943.9951 Q-1182.9285 -943.7216 -1182.9285 -943.2529 Q-1182.9285 -943.0497 -1182.8582 -942.9013 Q-1182.7878 -942.7529 -1182.6472 -942.6201 Q-1182.5066 -942.4872 -1182.0847 -942.2372 Q-1181.5222 -941.8935 -1181.3191 -941.6982 Q-1181.116 -941.5029 -1181.0144 -941.2685 Q-1180.9128 -941.0341 -1180.9128 -940.7216 ZM-1178.5066 -942.4404 Q-1178.5066 -941.1122 -1178.9832 -939.9794 Q-1179.4597 -938.8466 -1180.4753 -937.7997 L-1181.0847 -937.7997 Q-1179.1472 -939.956 -1179.1472 -942.4404 Q-1179.1472 -943.7685 -1179.5847 -944.7841 L-1179.0691 -944.7841 Q-1178.5066 -943.7216 -1178.5066 -942.4404 Z"></path><path style="fill:none; stroke:black;" d="M-1124.149 -941.6567 L-1124.5814 -941.9079 L-1124.5814 -942.4079"></path><path style="stroke:none;" d="M-1203.124 -827.6171 Q-1203.124 -828.9452 -1202.6553 -830.0702 Q-1202.1865 -831.1952 -1201.1553 -832.2733 L-1200.5459 -832.2733 Q-1201.5146 -831.2108 -1201.999 -830.0389 Q-1202.4834 -828.8671 -1202.4834 -827.6327 Q-1202.4834 -826.3046 -1202.0459 -825.2889 L-1202.5615 -825.2889 Q-1203.124 -826.3202 -1203.124 -827.6171 ZM-1199.6709 -828.9296 L-1200.1709 -826.5546 L-1200.8271 -826.5546 L-1199.624 -832.2733 L-1198.374 -832.2733 Q-1196.6396 -832.2733 -1196.6396 -830.8358 Q-1196.6396 -829.4764 -1198.0771 -829.0858 L-1197.1396 -826.5546 L-1197.8584 -826.5546 L-1198.6865 -828.9296 L-1199.6709 -828.9296 ZM-1199.0928 -831.6796 Q-1199.4834 -829.7577 -1199.5459 -829.5077 L-1198.8896 -829.5077 Q-1198.1396 -829.5077 -1197.7334 -829.8358 Q-1197.3271 -830.1639 -1197.3271 -830.7889 Q-1197.3271 -831.2577 -1197.585 -831.4686 Q-1197.8428 -831.6796 -1198.4365 -831.6796 L-1199.0928 -831.6796 ZM-1194.667 -829.9296 Q-1194.667 -828.6014 -1195.1436 -827.4686 Q-1195.6201 -826.3358 -1196.6357 -825.2889 L-1197.2451 -825.2889 Q-1195.3076 -827.4452 -1195.3076 -829.9296 Q-1195.3076 -831.2577 -1195.7451 -832.2733 L-1195.2295 -832.2733 Q-1194.667 -831.2108 -1194.667 -829.9296 Z"></path><path style="stroke:none;" d="M-1175.6587 -813.4272 Q-1175.6587 -814.7553 -1175.1899 -815.8803 Q-1174.7212 -817.0053 -1173.6899 -818.0834 L-1173.0806 -818.0834 Q-1174.0493 -817.0209 -1174.5337 -815.8491 Q-1175.0181 -814.6772 -1175.0181 -813.4428 Q-1175.0181 -812.1147 -1174.5806 -811.0991 L-1175.0962 -811.0991 Q-1175.6587 -812.1303 -1175.6587 -813.4272 ZM-1172.2056 -814.7397 L-1172.7056 -812.3647 L-1173.3618 -812.3647 L-1172.1587 -818.0834 L-1170.9087 -818.0834 Q-1169.1743 -818.0834 -1169.1743 -816.6459 Q-1169.1743 -815.2866 -1170.6118 -814.8959 L-1169.6743 -812.3647 L-1170.3931 -812.3647 L-1171.2212 -814.7397 L-1172.2056 -814.7397 ZM-1171.6274 -817.4897 Q-1172.0181 -815.5678 -1172.0806 -815.3178 L-1171.4243 -815.3178 Q-1170.6743 -815.3178 -1170.2681 -815.6459 Q-1169.8618 -815.9741 -1169.8618 -816.5991 Q-1169.8618 -817.0678 -1170.1196 -817.2787 Q-1170.3774 -817.4897 -1170.9712 -817.4897 L-1171.6274 -817.4897 ZM-1167.2017 -815.7397 Q-1167.2017 -814.4116 -1167.6782 -813.2787 Q-1168.1548 -812.1459 -1169.1704 -811.0991 L-1169.7798 -811.0991 Q-1167.8423 -813.2553 -1167.8423 -815.7397 Q-1167.8423 -817.0678 -1168.2798 -818.0834 L-1167.7642 -818.0834 Q-1167.2017 -817.0209 -1167.2017 -815.7397 Z"></path><path style="fill:none; stroke:black;" d="M-1125.0129 -799.528 L-1124.5814 -799.2754 L-1124.5814 -798.7754"></path><path style="stroke:none;" d="M-1088.3297 -941.7691 Q-1088.3297 -943.0972 -1087.861 -944.2222 Q-1087.3922 -945.3472 -1086.361 -946.4254 L-1085.7516 -946.4254 Q-1086.7203 -945.3629 -1087.2047 -944.191 Q-1087.6891 -943.0191 -1087.6891 -941.7847 Q-1087.6891 -940.4566 -1087.2516 -939.441 L-1087.7672 -939.441 Q-1088.3297 -940.4722 -1088.3297 -941.7691 ZM-1082.8141 -942.3629 Q-1082.8141 -941.5347 -1083.361 -941.0816 Q-1083.9078 -940.6285 -1084.9078 -940.6285 Q-1085.3141 -940.6285 -1085.6266 -940.6832 Q-1085.9391 -940.7379 -1086.2203 -940.8785 L-1086.2203 -941.5347 Q-1085.5953 -941.2066 -1084.8922 -941.2066 Q-1084.2672 -941.2066 -1083.8922 -941.5035 Q-1083.5172 -941.8004 -1083.5172 -942.316 Q-1083.5172 -942.6285 -1083.7203 -942.855 Q-1083.9235 -943.0816 -1084.486 -943.4097 Q-1085.0797 -943.7379 -1085.3063 -944.066 Q-1085.5328 -944.3941 -1085.5328 -944.8472 Q-1085.5328 -945.5816 -1085.0172 -946.0425 Q-1084.5016 -946.5035 -1083.6578 -946.5035 Q-1083.2828 -946.5035 -1082.9469 -946.4254 Q-1082.611 -946.3472 -1082.236 -946.1754 L-1082.5016 -945.5816 Q-1082.7516 -945.7379 -1083.0719 -945.8238 Q-1083.3922 -945.9097 -1083.6578 -945.9097 Q-1084.1891 -945.9097 -1084.5094 -945.6363 Q-1084.8297 -945.3629 -1084.8297 -944.8941 Q-1084.8297 -944.691 -1084.7594 -944.5425 Q-1084.6891 -944.3941 -1084.5485 -944.2613 Q-1084.4078 -944.1285 -1083.986 -943.8785 Q-1083.4235 -943.5347 -1083.2203 -943.3394 Q-1083.0172 -943.1441 -1082.9156 -942.9097 Q-1082.8141 -942.6754 -1082.8141 -942.3629 ZM-1080.4078 -944.0816 Q-1080.4078 -942.7535 -1080.8844 -941.6207 Q-1081.361 -940.4879 -1082.3766 -939.441 L-1082.986 -939.441 Q-1081.0485 -941.5972 -1081.0485 -944.0816 Q-1081.0485 -945.4097 -1081.486 -946.4254 L-1080.9703 -946.4254 Q-1080.4078 -945.3629 -1080.4078 -944.0816 Z"></path><path style="fill:none; stroke:black;" d="M-1058.8617 -918.7983 L-1058.6646 -919.2578 L-1059.0068 -919.6223"></path><path style="stroke:none;" d="M-1055.151 -911.4115 Q-1055.151 -912.7396 -1054.6823 -913.8646 Q-1054.2135 -914.9896 -1053.1823 -916.0677 L-1052.5729 -916.0677 Q-1053.5416 -915.0052 -1054.026 -913.8334 Q-1054.5104 -912.6615 -1054.5104 -911.4271 Q-1054.5104 -910.099 -1054.0729 -909.0834 L-1054.5885 -909.0834 Q-1055.151 -910.1146 -1055.151 -911.4115 ZM-1049.6354 -912.0052 Q-1049.6354 -911.1771 -1050.1823 -910.724 Q-1050.7291 -910.2709 -1051.7291 -910.2709 Q-1052.1354 -910.2709 -1052.4479 -910.3256 Q-1052.7604 -910.3802 -1053.0416 -910.5209 L-1053.0416 -911.1771 Q-1052.4166 -910.849 -1051.7135 -910.849 Q-1051.0885 -910.849 -1050.7135 -911.1459 Q-1050.3385 -911.4427 -1050.3385 -911.9584 Q-1050.3385 -912.2709 -1050.5416 -912.4974 Q-1050.7448 -912.724 -1051.3073 -913.0521 Q-1051.901 -913.3802 -1052.1276 -913.7084 Q-1052.3541 -914.0365 -1052.3541 -914.4896 Q-1052.3541 -915.224 -1051.8385 -915.6849 Q-1051.3229 -916.1459 -1050.4791 -916.1459 Q-1050.1041 -916.1459 -1049.7682 -916.0677 Q-1049.4323 -915.9896 -1049.0573 -915.8177 L-1049.3229 -915.224 Q-1049.5729 -915.3802 -1049.8932 -915.4662 Q-1050.2135 -915.5521 -1050.4791 -915.5521 Q-1051.0104 -915.5521 -1051.3307 -915.2787 Q-1051.651 -915.0052 -1051.651 -914.5365 Q-1051.651 -914.3334 -1051.5807 -914.1849 Q-1051.5104 -914.0365 -1051.3698 -913.9037 Q-1051.2291 -913.7709 -1050.8073 -913.5209 Q-1050.2448 -913.1771 -1050.0416 -912.9818 Q-1049.8385 -912.7865 -1049.7369 -912.5521 Q-1049.6354 -912.3177 -1049.6354 -912.0052 ZM-1047.2291 -913.724 Q-1047.2291 -912.3959 -1047.7057 -911.2631 Q-1048.1823 -910.1302 -1049.1979 -909.0834 L-1049.8073 -909.0834 Q-1047.8698 -911.2396 -1047.8698 -913.724 Q-1047.8698 -915.0521 -1048.3073 -916.0677 L-1047.7916 -916.0677 Q-1047.2291 -915.0052 -1047.2291 -913.724 Z"></path><path style="fill:none; stroke:black;" d="M-1053.5171 -871.0234 L-1053.265 -870.5916 L-1053.5176 -870.1601"></path><path style="fill:none; stroke:black;" d="M-1075.3264 -804.9336 L-1074.8633 -804.7451 L-1074.521 -805.1096"></path><path style="stroke:none;" d="M-1069.5264 -799.8608 Q-1069.5264 -801.1889 -1069.0576 -802.3139 Q-1068.5889 -803.4389 -1067.5576 -804.517 L-1066.9482 -804.517 Q-1067.917 -803.4545 -1068.4014 -802.2827 Q-1068.8857 -801.1108 -1068.8857 -799.8764 Q-1068.8857 -798.5483 -1068.4482 -797.5327 L-1068.9639 -797.5327 Q-1069.5264 -798.5639 -1069.5264 -799.8608 ZM-1064.0107 -800.4545 Q-1064.0107 -799.6264 -1064.5576 -799.1733 Q-1065.1045 -798.7202 -1066.1045 -798.7202 Q-1066.5107 -798.7202 -1066.8232 -798.7748 Q-1067.1357 -798.8295 -1067.417 -798.9702 L-1067.417 -799.6264 Q-1066.792 -799.2983 -1066.0889 -799.2983 Q-1065.4639 -799.2983 -1065.0889 -799.5952 Q-1064.7139 -799.892 -1064.7139 -800.4077 Q-1064.7139 -800.7202 -1064.917 -800.9467 Q-1065.1201 -801.1733 -1065.6826 -801.5014 Q-1066.2764 -801.8295 -1066.5029 -802.1577 Q-1066.7295 -802.4858 -1066.7295 -802.9389 Q-1066.7295 -803.6733 -1066.2139 -804.1342 Q-1065.6982 -804.5952 -1064.8545 -804.5952 Q-1064.4795 -804.5952 -1064.1436 -804.517 Q-1063.8076 -804.4389 -1063.4326 -804.267 L-1063.6982 -803.6733 Q-1063.9482 -803.8295 -1064.2686 -803.9155 Q-1064.5889 -804.0014 -1064.8545 -804.0014 Q-1065.3857 -804.0014 -1065.7061 -803.728 Q-1066.0264 -803.4545 -1066.0264 -802.9858 Q-1066.0264 -802.7827 -1065.9561 -802.6342 Q-1065.8857 -802.4858 -1065.7451 -802.353 Q-1065.6045 -802.2202 -1065.1826 -801.9702 Q-1064.6201 -801.6264 -1064.417 -801.4311 Q-1064.2139 -801.2358 -1064.1123 -801.0014 Q-1064.0107 -800.767 -1064.0107 -800.4545 ZM-1061.6045 -802.1733 Q-1061.6045 -800.8452 -1062.0811 -799.7123 Q-1062.5576 -798.5795 -1063.5732 -797.5327 L-1064.1826 -797.5327 Q-1062.2451 -799.6889 -1062.2451 -802.1733 Q-1062.2451 -803.5014 -1062.6826 -804.517 L-1062.167 -804.517 Q-1061.6045 -803.4545 -1061.6045 -802.1733 Z"></path><path style="fill:none; stroke:black;" d="M-1052.8326 -655.3397 L-1053.265 -655.5909 L-1053.265 -656.0909"></path><path style="fill:none; stroke:black;" d="M-1027.751 -700.7794 L-1027.3192 -701.0314 L-1026.8875 -700.7794"></path></g><g transform="translate(1277,1009)" style="stroke-linecap:butt; fill:rgb(0,5,255); text-rendering:geometricPrecision; color-rendering:optimizeQuality; image-rendering:optimizeQuality; font-family:'Open Sans'; stroke:rgb(0,5,255); color-interpolation:linearRGB; stroke-miterlimit:5;"><path style="stroke:none;" d="M-1101.7354 -651.4346 L-1102.876 -651.4346 L-1107.5635 -658.6221 L-1107.6104 -658.6221 Q-1107.5166 -657.3565 -1107.5166 -656.3096 L-1107.5166 -651.4346 L-1108.4385 -651.4346 L-1108.4385 -659.9971 L-1107.3135 -659.9971 L-1102.6416 -652.8409 L-1102.5947 -652.8409 Q-1102.5947 -652.9971 -1102.6416 -653.8565 Q-1102.6885 -654.7159 -1102.6729 -655.0909 L-1102.6729 -659.9971 L-1101.7354 -659.9971 L-1101.7354 -651.4346 Z"></path><path style="fill:none; stroke:black;" d="M-1173.1775 -776.0734 L-1173.1775 -775.5734 L-1173.609 -775.3208"></path><path style="fill:none; stroke:black;" d="M-1027.7516 -640.7654 L-1027.3192 -640.5142 L-1026.8868 -640.7654"></path><path style="fill:none; stroke:black;" d="M-1001.3732 -685.3846 L-1001.3732 -685.8846 L-1000.9401 -686.1343"></path></g><g transform="translate(1277,1009)" style="stroke-linecap:butt; font-size:8px; fill:gray; text-rendering:geometricPrecision; image-rendering:optimizeQuality; color-rendering:optimizeQuality; font-family:'Open Sans'; font-style:italic; stroke:gray; color-interpolation:linearRGB; stroke-miterlimit:5;"><path style="stroke:none;" d="M-1135.3844 -644.798 Q-1135.3844 -646.1262 -1134.9156 -647.2512 Q-1134.4469 -648.3762 -1133.4156 -649.4543 L-1132.8063 -649.4543 Q-1133.775 -648.3918 -1134.2594 -647.2199 Q-1134.7438 -646.048 -1134.7438 -644.8137 Q-1134.7438 -643.4855 -1134.3063 -642.4699 L-1134.8219 -642.4699 Q-1135.3844 -643.5012 -1135.3844 -644.798 ZM-1129.8688 -645.3918 Q-1129.8688 -644.5637 -1130.4156 -644.1105 Q-1130.9625 -643.6574 -1131.9625 -643.6574 Q-1132.3688 -643.6574 -1132.6813 -643.7121 Q-1132.9938 -643.7668 -1133.275 -643.9074 L-1133.275 -644.5637 Q-1132.65 -644.2355 -1131.9469 -644.2355 Q-1131.3219 -644.2355 -1130.9469 -644.5324 Q-1130.5719 -644.8293 -1130.5719 -645.3449 Q-1130.5719 -645.6574 -1130.775 -645.884 Q-1130.9781 -646.1105 -1131.5406 -646.4387 Q-1132.1344 -646.7668 -1132.361 -647.0949 Q-1132.5875 -647.423 -1132.5875 -647.8762 Q-1132.5875 -648.6105 -1132.0719 -649.0715 Q-1131.5563 -649.5324 -1130.7125 -649.5324 Q-1130.3375 -649.5324 -1130.0016 -649.4543 Q-1129.6656 -649.3762 -1129.2906 -649.2043 L-1129.5563 -648.6105 Q-1129.8063 -648.7668 -1130.1266 -648.8527 Q-1130.4469 -648.9387 -1130.7125 -648.9387 Q-1131.2438 -648.9387 -1131.5641 -648.6652 Q-1131.8844 -648.3918 -1131.8844 -647.923 Q-1131.8844 -647.7199 -1131.8141 -647.5715 Q-1131.7438 -647.423 -1131.6031 -647.2902 Q-1131.4625 -647.1574 -1131.0406 -646.9074 Q-1130.4781 -646.5637 -1130.275 -646.3683 Q-1130.0719 -646.173 -1129.9703 -645.9387 Q-1129.8688 -645.7043 -1129.8688 -645.3918 ZM-1127.4625 -647.1105 Q-1127.4625 -645.7824 -1127.9391 -644.6496 Q-1128.4156 -643.5168 -1129.4313 -642.4699 L-1130.0406 -642.4699 Q-1128.1031 -644.6262 -1128.1031 -647.1105 Q-1128.1031 -648.4387 -1128.5406 -649.4543 L-1128.025 -649.4543 Q-1127.4625 -648.3918 -1127.4625 -647.1105 Z"></path><path style="fill:none; stroke:black;" d="M-1198.6218 -760.6791 L-1199.0533 -760.4266 L-1199.4851 -760.6786"></path><path style="fill:none; stroke:black;" d="M-1001.3732 -656.0909 L-1001.3732 -655.5909 L-1000.9401 -655.3412"></path><path style="stroke:none;" d="M-1137.2733 -681.8812 Q-1137.2733 -683.2093 -1136.8046 -684.3343 Q-1136.3358 -685.4593 -1135.3046 -686.5374 L-1134.6952 -686.5374 Q-1135.6639 -685.4749 -1136.1483 -684.303 Q-1136.6327 -683.1312 -1136.6327 -681.8968 Q-1136.6327 -680.5687 -1136.1952 -679.553 L-1136.7108 -679.553 Q-1137.2733 -680.5843 -1137.2733 -681.8812 ZM-1133.8202 -683.1937 L-1134.3202 -680.8187 L-1134.9764 -680.8187 L-1133.7733 -686.5374 L-1132.5233 -686.5374 Q-1130.7889 -686.5374 -1130.7889 -685.0999 Q-1130.7889 -683.7405 -1132.2264 -683.3499 L-1131.2889 -680.8187 L-1132.0077 -680.8187 L-1132.8358 -683.1937 L-1133.8202 -683.1937 ZM-1133.2421 -685.9437 Q-1133.6327 -684.0218 -1133.6952 -683.7718 L-1133.0389 -683.7718 Q-1132.2889 -683.7718 -1131.8827 -684.0999 Q-1131.4764 -684.428 -1131.4764 -685.053 Q-1131.4764 -685.5218 -1131.7343 -685.7327 Q-1131.9921 -685.9437 -1132.5858 -685.9437 L-1133.2421 -685.9437 ZM-1128.8163 -684.1937 Q-1128.8163 -682.8655 -1129.2928 -681.7327 Q-1129.7694 -680.5999 -1130.785 -679.553 L-1131.3944 -679.553 Q-1129.4569 -681.7093 -1129.4569 -684.1937 Q-1129.4569 -685.5218 -1129.8944 -686.5374 L-1129.3788 -686.5374 Q-1128.8163 -685.4749 -1128.8163 -684.1937 Z"></path></g><g transform="translate(1277,1009)" style="stroke-linecap:butt; fill:rgb(230,0,0); text-rendering:geometricPrecision; color-rendering:optimizeQuality; image-rendering:optimizeQuality; font-family:'Open Sans'; stroke:rgb(230,0,0); color-interpolation:linearRGB; stroke-miterlimit:5;"><path style="stroke:none;" d="M-1155.2151 -639.5327 Q-1155.2151 -637.4702 -1156.2542 -636.2905 Q-1157.2932 -635.1108 -1159.137 -635.1108 Q-1161.0276 -635.1108 -1162.0588 -636.2748 Q-1163.0901 -637.4389 -1163.0901 -639.5483 Q-1163.0901 -641.642 -1162.0588 -642.7905 Q-1161.0276 -643.9389 -1159.137 -643.9389 Q-1157.2776 -643.9389 -1156.2463 -642.767 Q-1155.2151 -641.5952 -1155.2151 -639.5327 ZM-1162.0432 -639.5327 Q-1162.0432 -637.7983 -1161.301 -636.892 Q-1160.5588 -635.9858 -1159.137 -635.9858 Q-1157.7151 -635.9858 -1156.9885 -636.8842 Q-1156.262 -637.7827 -1156.262 -639.5327 Q-1156.262 -641.267 -1156.9885 -642.1577 Q-1157.7151 -643.0483 -1159.137 -643.0483 Q-1160.5588 -643.0483 -1161.301 -642.1498 Q-1162.0432 -641.2514 -1162.0432 -639.5327 Z"></path><path style="fill:none; stroke:black;" d="M-1224.5674 -775.3213 L-1224.9991 -775.5734 L-1225.494 -775.5023"></path></g><g transform="translate(1277,1009)" style="stroke-linecap:butt; font-size:8px; fill:gray; text-rendering:geometricPrecision; image-rendering:optimizeQuality; color-rendering:optimizeQuality; font-family:'Open Sans'; font-style:italic; stroke:gray; color-interpolation:linearRGB; stroke-miterlimit:5;"><path style="stroke:none;" d="M-1186.9996 -685.2902 Q-1186.9996 -686.6183 -1186.5309 -687.7433 Q-1186.0621 -688.8683 -1185.0309 -689.9465 L-1184.4215 -689.9465 Q-1185.3903 -688.884 -1185.8746 -687.7121 Q-1186.359 -686.5402 -1186.359 -685.3058 Q-1186.359 -683.9777 -1185.9215 -682.9621 L-1186.4371 -682.9621 Q-1186.9996 -683.9933 -1186.9996 -685.2902 ZM-1181.484 -685.884 Q-1181.484 -685.0558 -1182.0309 -684.6027 Q-1182.5778 -684.1496 -1183.5778 -684.1496 Q-1183.984 -684.1496 -1184.2965 -684.2043 Q-1184.609 -684.259 -1184.8903 -684.3996 L-1184.8903 -685.0558 Q-1184.2653 -684.7277 -1183.5621 -684.7277 Q-1182.9371 -684.7277 -1182.5621 -685.0246 Q-1182.1871 -685.3215 -1182.1871 -685.8371 Q-1182.1871 -686.1496 -1182.3903 -686.3762 Q-1182.5934 -686.6027 -1183.1559 -686.9308 Q-1183.7496 -687.259 -1183.9762 -687.5871 Q-1184.2028 -687.9152 -1184.2028 -688.3683 Q-1184.2028 -689.1027 -1183.6871 -689.5637 Q-1183.1715 -690.0246 -1182.3278 -690.0246 Q-1181.9528 -690.0246 -1181.6168 -689.9465 Q-1181.2809 -689.8683 -1180.9059 -689.6965 L-1181.1715 -689.1027 Q-1181.4215 -689.259 -1181.7418 -689.3449 Q-1182.0621 -689.4308 -1182.3278 -689.4308 Q-1182.859 -689.4308 -1183.1793 -689.1574 Q-1183.4996 -688.884 -1183.4996 -688.4152 Q-1183.4996 -688.2121 -1183.4293 -688.0637 Q-1183.359 -687.9152 -1183.2184 -687.7824 Q-1183.0778 -687.6496 -1182.6559 -687.3996 Q-1182.0934 -687.0558 -1181.8903 -686.8605 Q-1181.6871 -686.6652 -1181.5856 -686.4308 Q-1181.484 -686.1965 -1181.484 -685.884 ZM-1179.0778 -687.6027 Q-1179.0778 -686.2746 -1179.5543 -685.1418 Q-1180.0309 -684.009 -1181.0465 -682.9621 L-1181.6559 -682.9621 Q-1179.7184 -685.1183 -1179.7184 -687.6027 Q-1179.7184 -688.9308 -1180.1559 -689.9465 L-1179.6403 -689.9465 Q-1179.0778 -688.884 -1179.0778 -687.6027 Z"></path><path style="fill:none; stroke:black;" d="M-1182.5201 -656.4193 L-1182.9248 -656.713 L-1182.761 -657.1854"></path><path style="stroke:none;" d="M-1194.8684 -661.9111 Q-1194.8684 -663.2392 -1194.3997 -664.3642 Q-1193.9309 -665.4892 -1192.8997 -666.5673 L-1192.2903 -666.5673 Q-1193.259 -665.5048 -1193.7434 -664.3329 Q-1194.2278 -663.1611 -1194.2278 -661.9267 Q-1194.2278 -660.5986 -1193.7903 -659.5829 L-1194.3059 -659.5829 Q-1194.8684 -660.6142 -1194.8684 -661.9111 ZM-1191.4153 -663.2236 L-1191.9153 -660.8486 L-1192.5715 -660.8486 L-1191.3684 -666.5673 L-1190.1184 -666.5673 Q-1188.384 -666.5673 -1188.384 -665.1298 Q-1188.384 -663.7704 -1189.8215 -663.3798 L-1188.884 -660.8486 L-1189.6028 -660.8486 L-1190.4309 -663.2236 L-1191.4153 -663.2236 ZM-1190.8372 -665.9736 Q-1191.2278 -664.0517 -1191.2903 -663.8017 L-1190.634 -663.8017 Q-1189.884 -663.8017 -1189.4778 -664.1298 Q-1189.0715 -664.4579 -1189.0715 -665.0829 Q-1189.0715 -665.5517 -1189.3293 -665.7626 Q-1189.5872 -665.9736 -1190.1809 -665.9736 L-1190.8372 -665.9736 ZM-1186.4114 -664.2236 Q-1186.4114 -662.8954 -1186.8879 -661.7626 Q-1187.3645 -660.6298 -1188.3801 -659.5829 L-1188.9895 -659.5829 Q-1187.052 -661.7392 -1187.052 -664.2236 Q-1187.052 -665.5517 -1187.4895 -666.5673 L-1186.9739 -666.5673 Q-1186.4114 -665.5048 -1186.4114 -664.2236 Z"></path></g><g transform="translate(1277,1009)" style="stroke-linecap:butt; fill:rgb(0,5,255); text-rendering:geometricPrecision; color-rendering:optimizeQuality; image-rendering:optimizeQuality; font-family:'Open Sans'; stroke:rgb(0,5,255); color-interpolation:linearRGB; stroke-miterlimit:5;"><path style="stroke:none;" d="M-1251.9413 -767.0694 L-1253.0819 -767.0694 L-1257.7694 -774.2569 L-1257.8163 -774.2569 Q-1257.7225 -772.9913 -1257.7225 -771.9444 L-1257.7225 -767.0694 L-1258.6444 -767.0694 L-1258.6444 -775.6319 L-1257.5194 -775.6319 L-1252.8475 -768.4756 L-1252.8007 -768.4756 Q-1252.8007 -768.6319 -1252.8475 -769.4913 Q-1252.8944 -770.3506 -1252.8788 -770.7256 L-1252.8788 -775.6319 L-1251.9413 -775.6319 L-1251.9413 -767.0694 Z"></path><path style="stroke:none;" d="M-1252.035 -776.6319 L-1253.035 -776.6319 L-1253.035 -780.6631 L-1257.5507 -780.6631 L-1257.5507 -776.6319 L-1258.5507 -776.6319 L-1258.5507 -785.1944 L-1257.5507 -785.1944 L-1257.5507 -781.5538 L-1253.035 -781.5538 L-1253.035 -785.1944 L-1252.035 -785.1944 L-1252.035 -776.6319 Z"></path><path style="fill:rgb(230,0,0); stroke:none;" d="M-1169.24 -715.1266 Q-1169.24 -713.0641 -1170.2791 -711.8844 Q-1171.3181 -710.7047 -1173.1619 -710.7047 Q-1175.0525 -710.7047 -1176.0837 -711.8688 Q-1177.115 -713.0328 -1177.115 -715.1422 Q-1177.115 -717.236 -1176.0837 -718.3844 Q-1175.0525 -719.5328 -1173.1619 -719.5328 Q-1171.3025 -719.5328 -1170.2712 -718.361 Q-1169.24 -717.1891 -1169.24 -715.1266 ZM-1176.0681 -715.1266 Q-1176.0681 -713.3922 -1175.3259 -712.486 Q-1174.5837 -711.5797 -1173.1619 -711.5797 Q-1171.74 -711.5797 -1171.0134 -712.4781 Q-1170.2869 -713.3766 -1170.2869 -715.1266 Q-1170.2869 -716.861 -1171.0134 -717.7516 Q-1171.74 -718.6422 -1173.1619 -718.6422 Q-1174.5837 -718.6422 -1175.3259 -717.7438 Q-1176.0681 -716.8453 -1176.0681 -715.1266 Z"></path><path style="fill:none; stroke:black;" d="M-1270.1183 -745.7121 L-1270.3695 -745.2798 L-1270.1178 -744.8478"></path><path style="fill:rgb(111,5,255); stroke:none;" d="M-1196.3346 -732.125 Q-1196.3346 -730.8125 -1197.2252 -730.1172 Q-1198.1158 -729.4219 -1199.7565 -729.4219 L-1200.7721 -729.4219 L-1200.7721 -726.0469 L-1201.7721 -726.0469 L-1201.7721 -734.6094 L-1199.5377 -734.6094 Q-1196.3346 -734.6094 -1196.3346 -732.125 ZM-1200.7721 -730.2656 L-1199.8658 -730.2656 Q-1198.5533 -730.2656 -1197.9596 -730.6953 Q-1197.3658 -731.125 -1197.3658 -732.0781 Q-1197.3658 -732.9219 -1197.9205 -733.3359 Q-1198.4752 -733.75 -1199.6627 -733.75 L-1200.7721 -733.75 L-1200.7721 -730.2656 Z"></path><path style="fill:none; stroke:black;" d="M-1255.5446 -719.8359 L-1255.2928 -719.4039 L-1254.798 -719.3329"></path></g><g transform="translate(1277,1009)" style="stroke-linecap:butt; font-size:8px; fill:gray; text-rendering:geometricPrecision; image-rendering:optimizeQuality; color-rendering:optimizeQuality; font-family:'Open Sans'; font-style:italic; stroke:gray; color-interpolation:linearRGB; stroke-miterlimit:5;"><path style="stroke:none;" d="M-1253.9338 -726.5332 Q-1253.9338 -727.8613 -1253.4651 -728.9863 Q-1252.9963 -730.1113 -1251.9651 -731.1895 L-1251.3557 -731.1895 Q-1252.3245 -730.127 -1252.8088 -728.9551 Q-1253.2932 -727.7832 -1253.2932 -726.5488 Q-1253.2932 -725.2207 -1252.8557 -724.2051 L-1253.3713 -724.2051 Q-1253.9338 -725.2363 -1253.9338 -726.5332 ZM-1250.4807 -727.8457 L-1250.9807 -725.4707 L-1251.637 -725.4707 L-1250.4338 -731.1895 L-1249.1838 -731.1895 Q-1247.4495 -731.1895 -1247.4495 -729.752 Q-1247.4495 -728.3926 -1248.887 -728.002 L-1247.9495 -725.4707 L-1248.6682 -725.4707 L-1249.4963 -727.8457 L-1250.4807 -727.8457 ZM-1249.9026 -730.5957 Q-1250.2932 -728.6738 -1250.3557 -728.4238 L-1249.6995 -728.4238 Q-1248.9495 -728.4238 -1248.5432 -728.752 Q-1248.137 -729.0801 -1248.137 -729.7051 Q-1248.137 -730.1738 -1248.3948 -730.3848 Q-1248.6526 -730.5957 -1249.2463 -730.5957 L-1249.9026 -730.5957 ZM-1245.4768 -728.8457 Q-1245.4768 -727.5176 -1245.9534 -726.3848 Q-1246.4299 -725.252 -1247.4456 -724.2051 L-1248.0549 -724.2051 Q-1246.1174 -726.3613 -1246.1174 -728.8457 Q-1246.1174 -730.1738 -1246.5549 -731.1895 L-1246.0393 -731.1895 Q-1245.4768 -730.127 -1245.4768 -728.8457 Z"></path></g><g transform="translate(1277,1009)" style="stroke-linecap:butt; fill:rgb(230,0,0); text-rendering:geometricPrecision; color-rendering:optimizeQuality; image-rendering:optimizeQuality; font-family:'Open Sans'; stroke:rgb(230,0,0); color-interpolation:linearRGB; stroke-miterlimit:5;"><path style="stroke:none;" d="M-1221.0616 -715.1266 Q-1221.0616 -713.0641 -1222.1007 -711.8844 Q-1223.1398 -710.7047 -1224.9835 -710.7047 Q-1226.8741 -710.7047 -1227.9054 -711.8688 Q-1228.9366 -713.0328 -1228.9366 -715.1422 Q-1228.9366 -717.236 -1227.9054 -718.3844 Q-1226.8741 -719.5328 -1224.9835 -719.5328 Q-1223.1241 -719.5328 -1222.0929 -718.361 Q-1221.0616 -717.1891 -1221.0616 -715.1266 ZM-1227.8898 -715.1266 Q-1227.8898 -713.3922 -1227.1476 -712.486 Q-1226.4054 -711.5797 -1224.9835 -711.5797 Q-1223.5616 -711.5797 -1222.8351 -712.4781 Q-1222.1085 -713.3766 -1222.1085 -715.1266 Q-1222.1085 -716.861 -1222.8351 -717.7516 Q-1223.5616 -718.6422 -1224.9835 -718.6422 Q-1226.4054 -718.6422 -1227.1476 -717.7438 Q-1227.8898 -716.8453 -1227.8898 -715.1266 Z"></path><path style="fill:black; stroke:none;" d="M-1162.8372 -819.7327 L-1163.8372 -819.7327 L-1163.8372 -823.764 L-1168.3528 -823.764 L-1168.3528 -819.7327 L-1169.3528 -819.7327 L-1169.3528 -828.2952 L-1168.3528 -828.2952 L-1168.3528 -824.6546 L-1163.8372 -824.6546 L-1163.8372 -828.2952 L-1162.8372 -828.2952 L-1162.8372 -819.7327 Z"></path><path style="fill:black; stroke:none;" d="M-1124.339 -700.9423 L-1125.339 -700.9423 L-1125.339 -704.9736 L-1129.8546 -704.9736 L-1129.8546 -700.9423 L-1130.8546 -700.9423 L-1130.8546 -709.5048 L-1129.8546 -709.5048 L-1129.8546 -705.8642 L-1125.339 -705.8642 L-1125.339 -709.5048 L-1124.339 -709.5048 L-1124.339 -700.9423 Z"></path></g></g></svg></svg></svg></svg>